<?xml version="1.0" encoding="UTF-8" standalone="no"?>
<!-- Created with Inkscape (http://www.inkscape.org/) -->

<svg
   width="8.5in"
   height="11in"
   viewBox="0 0 215.9 279.4"
   version="1.1"
   id="svg1"
   inkscape:version="1.4.3 (0d15f75, 2025-12-25)"
   sodipodi:docname="centre-icon.svg"
   xmlns:inkscape="http://www.inkscape.org/namespaces/inkscape"
   xmlns:sodipodi="http://sodipodi.sourceforge.net/DTD/sodipodi-0.dtd"
   xmlns:xlink="http://www.w3.org/1999/xlink"
   xmlns="http://www.w3.org/2000/svg"
   xmlns:svg="http://www.w3.org/2000/svg">
  <sodipodi:namedview
     id="namedview1"
     pagecolor="#ffffff"
     bordercolor="#000000"
     borderopacity="0.25"
     inkscape:showpageshadow="2"
     inkscape:pageopacity="0.0"
     inkscape:pagecheckerboard="0"
     inkscape:deskcolor="#d1d1d1"
     inkscape:document-units="mm"
     inkscape:zoom="1.2452652"
     inkscape:cx="407.94525"
     inkscape:cy="528"
     inkscape:window-width="2560"
     inkscape:window-height="1537"
     inkscape:window-x="2552"
     inkscape:window-y="-8"
     inkscape:window-maximized="1"
     inkscape:current-layer="layer1" />
  <defs
     id="defs1">
    <linearGradient
       id="linearGradient2"
       inkscape:collect="always">
      <stop
         style="stop-color:#f9f9f9;stop-opacity:1;"
         offset="0"
         id="stop2" />
      <stop
         style="stop-color:#f0f0f0;stop-opacity:1;"
         offset="1"
         id="stop3" />
    </linearGradient>
    <linearGradient
       inkscape:collect="always"
       xlink:href="#linearGradient2"
       id="linearGradient3"
       x1="72.062836"
       y1="78.713913"
       x2="109.21844"
       y2="138.17531"
       gradientUnits="userSpaceOnUse"
       gradientTransform="translate(-24.009278,-44.40654)" />
  </defs>
  <g
     inkscape:label="Layer 1"
     inkscape:groupmode="layer"
     id="layer1">
    <rect
       style="fill:url(#linearGradient3);stroke-width:0.737156;stroke-linecap:round"
       id="rect1"
       width="70.115578"
       height="70.115578"
       x="31.573563"
       y="28.98027"
       ry="16.985748" />
    <path
       style="fill:#1a1a1a;fill-opacity:1;stroke:none;stroke-width:0.811165;stroke-opacity:1"
       d="m 62.683696,91.84126 c -0.18028,-0.15836 -0.24588,-0.28933 -0.31798,-0.63526 -0.05,-0.23973 -0.1261,-0.54402 -0.16921,-0.67624 -0.0431,-0.13227 -0.0811,-0.27127 -0.0844,-0.30906 -0.003,-0.0377 -0.0718,-0.20775 -0.15208,-0.37773 -0.41928,-0.88715 -0.75645,-1.98444 -0.63318,-2.06062 0.0586,-0.0363 0.0608,-0.0595 0.007,-0.0773 -0.0421,-0.0143 -0.0842,-0.14919 -0.0936,-0.3002 -0.0171,-0.27468 -0.0171,-0.27468 0.25761,-0.25183 0.35997,0.03 0.4541,0.13248 0.45768,0.49885 0.002,0.16693 0.0489,0.35435 0.10557,0.41829 0.12578,0.14206 0.0637,0.26096 -0.13808,0.26457 -0.12414,0.002 -0.11238,0.0183 0.0673,0.0974 0.24165,0.10518 0.32641,0.23009 0.39792,0.58669 0.0265,0.13228 0.1402,0.37166 0.25265,0.5321 0.11245,0.1604 0.18578,0.32194 0.16295,0.3589 -0.0228,0.0369 0.0271,0.19933 0.11094,0.3607 0.31802,0.61244 0.34532,0.68098 0.30895,0.77576 -0.0205,0.0536 0.007,0.18322 0.0623,0.28833 0.31109,0.59636 -0.10347,0.9449 -0.60263,0.50664 z m -0.96809,-3.96708 c -0.0251,-0.0251 -0.0664,-0.0251 -0.0916,0 -0.0251,0.0251 -0.005,0.0457 0.0458,0.0457 0.0504,0 0.071,-0.0205 0.0458,-0.0457 z m -0.18314,-0.0573 c 0,-0.0183 -0.0155,-0.0343 -0.0343,-0.0343 -0.019,0 -0.0343,0.0163 -0.0343,0.0343 0,0.0183 0.0155,0.0343 0.0343,0.0343 0.019,0 0.0343,-0.0163 0.0343,-0.0343 z m 17.495066,1.00977 c -0.36873,-0.36652 -0.67006,-0.69156 -0.66962,-0.72234 4.6e-4,-0.0308 -0.0905,-0.13288 -0.20214,-0.2267 -0.11163,-0.094 -0.32774,-0.36236 -0.48027,-0.59652 -0.41978,-0.64442 -0.77943,-1.06413 -1.10116,-1.28503 -0.10692,-0.0734 -0.15582,-0.18404 -0.16687,-0.37772 -0.0106,-0.18466 -0.10353,-0.4082 -0.28541,-0.68598 -0.148396,-0.22664 -0.307006,-0.49706 -0.352486,-0.60092 -0.0455,-0.10395 -0.11467,-0.18893 -0.15376,-0.18893 -0.0391,0 -0.11485,-0.10477 -0.16835,-0.23281 -0.0535,-0.12799 -0.20145,-0.35208 -0.3288,-0.49792 -0.2224,-0.25466 -0.4686,-0.70534 -0.4686,-0.85779 0,-0.0401 -0.0685,-0.16917 -0.15231,-0.28681 -0.0838,-0.1176 -0.29309,-0.50874 -0.46516,-0.86908 -0.17208,-0.36036 -0.41465,-0.83254 -0.53905,-1.04927 -0.12441,-0.21673 -0.20651,-0.42591 -0.18246,-0.46484 0.0241,-0.0389 -0.0202,-0.17426 -0.0984,-0.30081 -0.0782,-0.12656 -0.14238,-0.27278 -0.14261,-0.32498 -2.4e-4,-0.0522 -0.0477,-0.18567 -0.10551,-0.29642 -0.0578,-0.11088 -0.0895,-0.2422 -0.0704,-0.29188 0.0192,-0.0497 0.005,-0.0903 -0.0309,-0.0903 -0.0973,0 -0.28171,-0.484 -0.23746,-0.62339 0.021,-0.0662 0.006,-0.14044 -0.0333,-0.16469 -0.0393,-0.0243 -0.0715,-0.10415 -0.0715,-0.17752 0,-0.0734 -0.0285,-0.13329 -0.0633,-0.13329 -0.0349,0 -0.10048,-0.11251 -0.14585,-0.24998 -0.0454,-0.13758 -0.20231,-0.49258 -0.34872,-0.78911 -0.14642,-0.29649 -0.26622,-0.5756 -0.26622,-0.62024 0,-0.0446 -0.0419,-0.13003 -0.0931,-0.18955 -0.20438,-0.2381 -0.93711,-1.8302 -0.93711,-2.03616 0,-0.0461 -0.0433,-0.10027 -0.0963,-0.12045 -0.053,-0.0204 -0.1635,-0.2168 -0.24561,-0.43659 -0.0821,-0.21981 -0.19092,-0.446 -0.24177,-0.50266 -0.11768,-0.13106 -0.31295,-0.69371 -0.26673,-0.76852 0.0192,-0.0312 -0.01,-0.0738 -0.0647,-0.0948 -0.0548,-0.021 -0.11817,-0.13085 -0.14079,-0.24386 -0.0226,-0.11312 -0.0871,-0.25159 -0.14324,-0.30776 -0.0561,-0.0561 -0.13638,-0.23208 -0.17822,-0.39092 -0.0419,-0.15876 -0.11925,-0.3562 -0.172,-0.43858 -0.12369,-0.19321 -0.37345,-0.84982 -0.37404,-0.9834 -2.5e-4,-0.0566 -0.0466,-0.19158 -0.10305,-0.29975 -0.13476,-0.25839 -0.13336,-0.26238 0.0836,-0.23707 0.16079,0.0183 0.20608,0.0795 0.33155,0.44494 0.0799,0.23277 0.19702,0.50212 0.26019,0.59852 0.0632,0.0964 0.11487,0.23347 0.11487,0.30452 0,0.0711 0.0435,0.21897 0.0967,0.32865 0.0532,0.10965 0.20918,0.44665 0.34667,0.74885 0.13749,0.30219 0.27941,0.60311 0.31539,0.66869 0.0359,0.0657 0.0654,0.1602 0.0654,0.2104 0,0.0501 0.16124,0.41368 0.35831,0.8079 0.19707,0.39422 0.36012,0.73223 0.36235,0.7511 0.002,0.0183 0.0557,0.11169 0.11892,0.20603 0.10405,0.15551 0.16085,0.26704 0.41984,0.82417 0.0439,0.0944 0.25357,0.51164 0.46593,0.92714 0.21235,0.41551 0.40726,0.85271 0.43313,0.97156 0.0259,0.11882 0.10875,0.27195 0.18421,0.34023 0.0859,0.0777 0.12997,0.1926 0.11792,0.30757 -0.0106,0.10088 0.0161,0.22603 0.0593,0.27806 0.14265,0.17182 0.3741,0.84044 0.33832,0.97724 -0.0237,0.0907 0.0517,0.233 0.23152,0.4373 0.14666,0.16652 0.28777,0.39905 0.31357,0.51653 0.0258,0.11739 0.13252,0.35491 0.23714,0.52763 0.10462,0.17283 0.21006,0.37995 0.2343,0.46047 0.0243,0.0805 0.18223,0.4027 0.35108,0.71587 0.16883,0.31319 0.30699,0.60505 0.30699,0.64856 0,0.0436 0.0738,0.14838 0.16401,0.23322 0.0921,0.0864 0.15053,0.20565 0.13329,0.27163 -0.0169,0.0646 0.0789,0.29944 0.21274,0.52182 0.1339,0.22238 0.26036,0.45324 0.28101,0.513 0.0206,0.0597 0.13698,0.17101 0.25852,0.2474 0.176396,0.11067 0.228876,0.1977 0.260146,0.43088 0.028,0.20905 0.10904,0.36499 0.28471,0.54808 0.13504,0.14083 0.32682,0.42588 0.42616,0.63363 0.0994,0.20775 0.25631,0.48591 0.34881,0.61811 0.17098,0.24439 0.28304,0.37997 1.09028,1.31918 0.25025,0.29115 0.455,0.55066 0.455,0.57669 0,0.0675 0.46153,0.62864 0.79492,0.96649 0.35159,0.35626 0.509,0.69262 0.3664,0.78292 -0.14114,0.0893 -0.1101,0.11189 -0.83592,-0.60948 z M 61.344696,86.74567 c -0.21497,-0.0795 -0.37552,-0.34028 -0.2802,-0.45513 0.0578,-0.0695 0.0572,-0.11373 -0.002,-0.17284 -0.12788,-0.12779 -0.0918,-0.25807 0.0716,-0.25807 0.1735,0 0.0928,-0.11067 -0.10782,-0.14797 -0.0913,-0.0163 -0.16774,-0.15265 -0.26456,-0.47024 -0.0749,-0.24553 -0.16765,-0.48505 -0.2062,-0.53226 -0.0481,-0.0589 -0.0453,-0.11556 0.009,-0.18078 0.061,-0.0736 0.0541,-0.10455 -0.0303,-0.13696 -0.06,-0.023 -0.0891,-0.0744 -0.0645,-0.11414 0.0245,-0.0397 0.009,-0.11536 -0.0352,-0.16834 -0.0947,-0.11414 -0.27999,-0.90291 -0.31482,-1.34009 -0.0343,-0.43084 -0.14678,-0.95189 -0.26687,-1.23621 -0.0558,-0.13227 -0.14895,-0.47917 -0.20693,-0.77101 -0.058,-0.29185 -0.1677,-0.64152 -0.24383,-0.77708 -0.0762,-0.13553 -0.1241,-0.26954 -0.10664,-0.29783 0.0175,-0.0283 -0.0427,-0.20701 -0.13372,-0.39719 -0.091,-0.19016 -0.1785,-0.48508 -0.1944,-0.65532 -0.0159,-0.17019 -0.0647,-0.37647 -0.10851,-0.45826 -0.0438,-0.0817 -0.0628,-0.17589 -0.0423,-0.20911 0.0205,-0.0332 -0.07,-0.47296 -0.20112,-0.97725 -0.35725,-1.37389 -0.42135,-1.59739 -0.50079,-1.74583 -0.20335,-0.37993 -0.28173,-1.01715 -0.32891,-2.67367 -0.0634,-2.22612 -0.0633,-2.22381 -0.14869,-2.30925 -0.0514,-0.0514 -0.11915,-0.0481 -0.22981,0.0102 -0.0863,0.0461 -0.34441,0.1278 -0.57358,0.1812 -0.22918,0.0534 -0.51906,0.15755 -0.6442,0.23145 -0.12515,0.0738 -0.30053,0.13431 -0.38978,0.13431 -0.28754,0 -2.81415,1.3384 -2.83936,1.5041 -0.033,0.21685 0.29358,0.19647 0.44033,-0.0275 0.23943,-0.36543 0.55725,-0.15817 0.39175,0.25533 -0.10838,0.27085 -0.10838,0.27085 0.31338,0.69639 0.23196,0.23404 0.42177,0.47105 0.42179,0.5267 2e-5,0.0557 0.15455,0.23424 0.34339,0.39686 0.18886,0.16265 0.34336,0.33609 0.34336,0.38545 0,0.0493 0.0932,0.2071 0.20719,0.35048 0.21857,0.27505 0.18119,0.51532 -0.0885,0.56891 -0.12178,0.0243 -0.5994,-0.3719 -0.5994,-0.49708 0,-0.0463 -0.20861,-0.29125 -0.46358,-0.54433 -1.14522,-1.13667 -1.06753,-1.08547 -1.35833,-0.89494 -0.28108,0.18425 -0.51295,0.0795 -0.51422,-0.23208 -0.002,-0.39217 -0.0501,-0.42871 -0.48139,-0.36298 -0.51703,0.0787 -0.79963,0.1975 -1.19199,0.50036 -0.18437,0.14227 -0.3595,0.25883 -0.38922,0.25883 -0.0297,0 -0.10572,0.13533 -0.16888,0.30075 -0.17134,0.44867 -0.58432,0.60989 -0.58262,0.22745 0.002,-0.55983 0.91862,-1.59498 1.7163,-1.93926 0.0566,-0.0245 0.19574,-0.0848 0.30905,-0.13413 0.11332,-0.0493 0.29102,-0.12289 0.3949,-0.16366 0.25603,-0.10007 0.24569,-0.23972 -0.0903,-1.2198 -0.15355,-0.4479 -0.32537,-0.98432 -0.38184,-1.19206 -0.0565,-0.20777 -0.13,-0.46527 -0.1634,-0.57226 -0.0716,-0.22939 0.0207,-0.52661 0.16348,-0.52661 0.10408,0 0.38622,0.42508 0.38622,0.58189 0,0.0514 0.105,0.33544 0.23333,0.63136 0.12832,0.29593 0.27088,0.72347 0.31678,0.95011 0.1664,0.82168 0.26985,0.94231 0.57204,0.6671 0.17049,-0.1553 0.93303,-0.5637 1.05283,-0.56393 0.0441,-8e-5 0.16778,-0.0436 0.27471,-0.0968 0.32558,-0.16183 0.52481,-0.23769 0.8244,-0.31375 0.15761,-0.0399 0.29738,-0.10517 0.31059,-0.14491 0.0132,-0.0397 0.34785,-0.15877 0.74362,-0.26484 1.32684,-0.3554 1.37391,-0.39827 0.97447,-0.88732 -0.14309,-0.17528 -0.3701,-0.48858 -0.50444,-0.69632 -0.13433,-0.20775 -0.37265,-0.57572 -0.52961,-0.81771 -0.15695,-0.24199 -0.28535,-0.48724 -0.28535,-0.54499 0,-0.0577 -0.0584,-0.16876 -0.12981,-0.24682 -0.0714,-0.0781 -0.22005,-0.31177 -0.33033,-0.51954 -0.11028,-0.20774 -0.29021,-0.51678 -0.39984,-0.68676 -0.10963,-0.16998 -0.25925,-0.43268 -0.33248,-0.58379 -0.0732,-0.15103 -0.20585,-0.42424 -0.2947,-0.60701 -0.0889,-0.18283 -0.29832,-0.50728 -0.46547,-0.72112 -0.3109,-0.39776 -0.71795,-1.24438 -0.86387,-1.79673 -0.0449,-0.16999 -0.12064,-0.38631 -0.16829,-0.48076 -0.31594,-0.6261 -0.52258,-1.1018 -0.58172,-1.33923 -0.12414,-0.49824 -0.24522,-0.8915 -0.30156,-0.97928 -0.0305,-0.0475 -0.0373,-0.14369 -0.0151,-0.21351 0.0228,-0.0717 -0.003,-0.16326 -0.0599,-0.21024 -0.0551,-0.0459 -0.12143,-0.25872 -0.14737,-0.47328 -0.026,-0.21455 -0.0756,-0.42576 -0.11033,-0.46936 -0.0347,-0.0436 -0.0447,-0.15286 -0.0222,-0.2426 0.0228,-0.0909 -0.005,-0.25156 -0.0622,-0.3622 -0.0568,-0.10944 -0.0879,-0.22366 -0.0692,-0.2539 0.0187,-0.0301 0.035,-0.85034 0.0363,-1.822409 0.002,-1.10628 0.0294,-1.81814 0.0749,-1.90305 0.0399,-0.0746 0.067,-0.36935 0.0602,-0.65498 -0.0187,-0.7858 0.20084,-0.97738 0.54994,-0.47963 0.0983,0.14022 0.10751,0.24223 0.0585,0.64715 -0.032,0.2644 -0.0405,0.62699 -0.0187,0.80576 0.0288,0.23664 0.009,0.37116 -0.0717,0.49475 -0.0791,0.12066 -0.0938,0.2156 -0.0508,0.32869 0.0333,0.0874 0.0358,0.31455 0.006,0.50468 -0.14773,0.934519 0.0935,3.561089 0.35245,3.837719 0.0336,0.0359 0.0611,0.12331 0.0611,0.19424 0,0.0709 0.0719,0.31978 0.15977,0.55286 0.0879,0.23308 0.19896,0.53195 0.24684,0.66417 0.27667,0.76389 0.42931,1.13809 0.48829,1.19709 0.0367,0.0367 0.0666,0.13166 0.0666,0.21111 0,0.0795 0.0911,0.28825 0.20255,0.46392 0.1114,0.17568 0.23757,0.45211 0.28038,0.61437 0.0428,0.16224 0.17697,0.44953 0.29815,0.63839 0.29634,0.4619 0.33119,0.52329 0.70157,1.23621 0.43845,0.84391 0.63275,1.18248 0.88685,1.54527 0.11905,0.16998 0.30249,0.47905 0.40762,0.68679 0.10513,0.20776 0.26502,0.47612 0.3553,0.59637 0.0903,0.12025 0.16415,0.25026 0.16415,0.28895 0,0.0673 0.27258,0.37683 0.97728,1.1097 0.17866,0.18588 0.37295,0.45298 0.43176,0.59373 0.0588,0.14063 0.16759,0.31242 0.24176,0.38152 0.18344,0.17079 0.17062,0.25652 -0.0792,0.53012 -0.21271,0.23289 -0.21381,0.23797 -0.16937,0.78792 0.0246,0.30445 0.0532,0.72352 0.0636,0.93126 0.0104,0.20777 0.0537,0.48591 0.0962,0.61812 0.0426,0.13227 0.0963,0.53397 0.11954,0.89282 0.0724,1.12041 0.0938,1.31974 0.16138,1.5038 0.0361,0.0984 0.10323,0.36197 0.14917,0.58584 0.0459,0.22385 0.15818,0.60537 0.24944,0.8478 0.0913,0.24244 0.17696,0.61559 0.19043,0.8292 0.0296,0.4693 0.1431,0.9079 0.32064,1.23913 0.0725,0.13534 0.1319,0.29413 0.1319,0.35281 0,0.0587 0.0631,0.2291 0.14031,0.37874 0.0771,0.1496 0.15003,0.39569 0.16191,0.5468 0.0118,0.15102 0.0526,0.35196 0.0905,0.44639 0.0379,0.0944 0.10339,0.32622 0.1455,0.5151 0.27446,1.23101 0.42326,1.97377 0.42326,2.11281 0,0.0882 0.0331,0.19362 0.0736,0.23405 0.0405,0.0406 0.0885,0.22437 0.10674,0.40863 0.0467,0.47245 0.0655,0.59538 0.10882,0.71279 0.0209,0.0566 0.0752,0.24209 0.12067,0.41207 0.0454,0.16998 0.13972,0.46357 0.20949,0.65245 0.25203,0.68236 0.3432,1.00728 0.30154,1.07467 -0.0234,0.0379 0.0265,0.14205 0.11079,0.23181 0.25071,0.26686 -0.0112,0.51157 -0.39529,0.36946 z m 7.22024,-18.15262 c -0.0205,-0.0532 -0.13535,-0.13615 -0.25539,-0.18425 -0.6249,-0.25028 -1.96958,-1.37376 -1.96958,-1.64557 0,-0.0605 -0.0792,-0.18446 -0.17614,-0.27542 -0.0969,-0.0909 -0.22234,-0.27411 -0.2788,-0.40687 -0.0565,-0.13269 -0.16473,-0.35931 -0.24057,-0.50343 -0.25562,-0.48572 -0.34463,-0.81076 -0.25244,-0.92184 0.0666,-0.0803 0.0586,-0.11353 -0.0404,-0.16896 -0.17292,-0.0968 -0.32234,-0.48966 -0.27543,-0.72421 0.0268,-0.13391 0.005,-0.22591 -0.0695,-0.2874 -0.0599,-0.0497 -0.10894,-0.15633 -0.10894,-0.23675 0,-0.0805 -0.0621,-0.36258 -0.13786,-0.62687 -0.0758,-0.26428 -0.14992,-0.61959 -0.16468,-0.78957 -0.0147,-0.16999 -0.0442,-0.35542 -0.0655,-0.41207 -0.0213,-0.0566 -0.0542,-0.36574 -0.0733,-0.68681 -0.0192,-0.32106 -0.0669,-0.69194 -0.10639,-0.82413 -0.0513,-0.17203 -0.0496,-0.29419 0.006,-0.42932 0.0509,-0.12371 0.0547,-0.21853 0.011,-0.27472 -0.14047,-0.18057 -0.25039,-0.93958 -0.1604,-1.10773 0.0686,-0.1284 0.0642,-0.20548 -0.0238,-0.41628 -0.0594,-0.14226 -0.0903,-0.32992 -0.0685,-0.41686 0.0218,-0.087 -0.009,-0.40048 -0.0694,-0.69676 -0.06,-0.29627 -0.12469,-0.83227 -0.14377,-1.191139 -0.0508,-0.95576 -0.095,-1.22999 -0.31783,-1.97224 -0.0405,-0.13493 -0.0419,-0.26863 -0.003,-0.3434 0.0683,-0.1333 0.0284,-0.63753 -0.0505,-0.63753 -0.16387,0 -0.63599,-0.47356 -0.70639,-0.70852 -0.12408,-0.41417 0.19972,-0.55908 0.41272,-0.18465 0.16417,0.28849 0.22967,0.2565 0.17483,-0.0854 -0.0257,-0.16061 -0.0493,-0.60329 -0.0523,-0.98391 -0.007,-0.76849 0.10338,-0.73757 -1.41844,-0.4006 -0.54003,0.11964 -1.43681,0.11087 -1.80793,-0.0183 -0.42507,-0.14716 -1.60807,-0.17121 -1.68471,-0.0343 -0.0527,0.0942 -0.0854,0.097 -0.22987,0.0204 -0.19424,-0.10395 -0.28905,-0.065 -0.97697,0.40137 -0.39631,0.26865 -0.98895,0.48524 -2.19772,0.80315 -1.36969,0.36024 -4.37842,-0.0938 -5.73763,-0.86558 -0.24715,-0.14042 -0.55247,-0.29112 -0.67848,-0.33507 -0.33483,-0.11679 -1.20173,-0.80368 -1.40851,-1.11615 -0.0981,-0.14817 -0.20417,-0.26959 -0.23567,-0.26959 -0.0724,0 -0.33221,-0.63512 -0.4915,-1.20186 -0.0319,-0.11332 -0.16546,-0.46892 -0.29688,-0.79023 -0.26086,-0.63773 -0.37693,-1.15059 -0.3525,-1.55752 0.009,-0.1441 0.0332,-0.71018 0.0546,-1.25789 0.0446,-1.14378 0.0931,-1.41298 0.34014,-1.88866 0.0981,-0.18893 0.23445,-0.48165 0.30301,-0.65065 0.14375,-0.35427 0.59516,-0.95195 0.76467,-1.01243 0.0635,-0.0226 0.30594,-0.22176 0.53876,-0.44243 0.23281,-0.22069 0.46807,-0.40125 0.52281,-0.40125 0.0548,0 0.21405,-0.0911 0.35402,-0.20218 0.13998,-0.11129 0.36058,-0.23726 0.4902,-0.28004 0.12962,-0.0428 0.23568,-0.10965 0.23568,-0.14859 0,-0.0389 -0.0504,-0.0514 -0.11185,-0.0277 -0.27816,0.10681 -0.71914,0.18997 -0.81403,0.15349 -0.23269,-0.0893 -0.068,-0.45642 0.20476,-0.45642 0.16833,0 0.30906,-0.12147 0.30906,-0.26684 0,-0.0561 0.0671,-0.17345 0.14933,-0.26099 0.0821,-0.0874 0.1143,-0.15897 0.0715,-0.15897 -0.14405,0 -2.17502,0.70215 -2.49015,0.8609 -0.39533,0.19914 -1.07251,0.3979 -1.1637,0.34155 -0.17803,-0.11007 -0.0243,-0.51566 0.19534,-0.51566 0.0551,0 0.47382,-0.18282 0.9306,-0.40618 0.47598,-0.23278 0.97221,-0.42551 1.16245,-0.45147 0.18258,-0.0249 0.45614,-0.0891 0.60793,-0.14267 0.15178,-0.0536 0.58961,-0.13044 0.97294,-0.17059 1.77916,-0.1871 2.87235,-0.33368 3.10073,-0.41593 0.11332,-0.0408 0.77778,-0.13247 1.47659,-0.20361 1.11033,-0.11311 1.53507,-0.16141 2.67847,-0.30468 0.13219,-0.0163 0.62669,-0.0613 1.09886,-0.0992 0.47217,-0.0381 0.98211,-0.0991 1.1332,-0.13554 0.80521,-0.19424 1.4017,-0.10272 1.12093,0.17202 -0.0906,0.0887 -1.28798,0.25728 -2.3849,0.33593 -1.15651,0.0829 -0.82992,0.23746 0.40548,0.19199 0.54515,-0.0204 0.97129,-10e-4 1.16754,0.0499 0.16998,0.0448 0.49449,0.0744 0.72113,0.0657 0.22664,-0.008 0.47388,-0.0122 0.54943,-0.008 0.28262,0.0183 0.6218,0.006 0.73105,-0.0279 0.12629,-0.0385 0.35572,0.15327 0.29695,0.24835 -0.0208,0.0336 0.006,0.14695 0.0586,0.25202 0.10456,0.20703 0.0864,0.33062 -0.0761,0.51709 -0.0576,0.066 -0.0767,0.12351 -0.0426,0.12779 0.0341,0.004 0.18578,0.0183 0.33687,0.0296 2.20338,0.17752 4.58575,1.69692 5.45687,3.48041 0.53307,1.09142 0.64046,1.14621 1.37666,0.70256 0.2833,-0.17079 0.59235,-0.32919 0.68679,-0.35212 0.0944,-0.023 0.29531,-0.0944 0.44641,-0.15878 0.67063,-0.28599 1.06448,-0.4086 1.5382,-0.47887 0.27941,-0.0414 0.53552,-0.0923 0.56913,-0.11312 0.31896,-0.19709 2.81932,-0.3956 3.22461,-0.25597 1.089936,0.37551 1.630866,0.9543 2.760526,2.95375 0.65646,1.16189 0.9456,2.38234 0.58115,2.45307 -0.0866,0.0163 -0.55924,0.0976 -1.05029,0.17955 -0.49106,0.0819 -0.92919,0.16 -0.97363,0.17345 -0.077,0.0232 0.0664,0.50681 0.24936,0.84077 0.2556,0.46668 0.71823,1.77106 0.69357,1.95553 -0.002,0.0102 0.0733,0.23408 0.16564,0.49849 0.168,0.48077 0.168,0.48077 1.31287,0.46493 0.62968,-0.008 1.24145,-0.0466 1.35947,-0.0846 0.11803,-0.0379 0.39027,-0.11598 0.60499,-0.17366 0.44413,-0.11943 0.48117,-0.20075 0.37574,-0.82486 -0.0981,-0.58017 -0.40391,-1.77786 -0.49111,-1.92298 -0.0454,-0.0754 -0.12233,-0.26096 -0.17094,-0.41207 -0.13902,-0.4321 -0.34167,-0.80555 -0.56438,-1.04008 -0.25633,-0.26993 -0.23579,-0.46309 0.0522,-0.49136 0.45367,-0.0446 1.44888,2.18389 1.65778,3.712 0.0425,0.31098 0.14978,0.32679 0.3529,0.052 0.0835,-0.11291 0.26707,-0.26447 0.40782,-0.33656 0.38859,-0.19891 1.27336,-0.92164 1.38453,-1.13079 0.0997,-0.18751 0.34854,-0.30036 0.48142,-0.21825 0.16945,0.10477 0.0666,0.43898 -0.26741,0.86931 -0.187,0.24089 -0.40568,0.52299 -0.48597,0.62687 -0.0803,0.10394 -0.18572,0.18893 -0.23427,0.18893 -0.0854,0 -1.1375,0.66454 -1.1375,0.71849 0,0.0143 0.19316,0.0261 0.42925,0.0252 0.23608,-7e-4 0.56832,0.0501 0.7383,0.11311 0.16998,0.063 0.44626,0.15898 0.61396,0.21331 0.1677,0.0542 0.36859,0.13982 0.44641,0.19037 0.51966,0.33639 2.05808,0.40803 2.45533,0.11433 0.38137,-0.28195 1.1126,-0.0811 0.75599,0.20765 -0.69594,0.56354 -2.23917,0.5592 -3.61925,-0.0102 -1.02818,-0.4242 -1.36139,-0.45979 -1.923,-0.20534 -0.30843,0.13981 -0.62325,0.20116 -2.16036,0.42191 -0.70949,0.10191 -1.74126,0.33409 -1.81589,0.40871 -0.0457,0.0457 0.005,0.24918 0.15241,0.60918 0.12156,0.29732 0.26946,0.72233 0.32867,0.94449 0.17779,0.66706 0.43949,1.63548 0.46179,1.70881 0.0116,0.0377 0.0455,0.17691 0.0756,0.30904 0.0301,0.13228 0.0782,0.2713 0.10688,0.30907 0.0286,0.0379 0.0685,0.16142 0.0885,0.274729 0.02,0.11332 0.13719,0.49296 0.26036,0.84368 0.24173,0.68832 0.22302,0.8251 -0.10175,0.74357 -0.12014,-0.0301 -0.18742,-0.10353 -0.21285,-0.2319 -0.0421,-0.21253 -0.28383,-1.02738 -0.41233,-1.389699 -0.0469,-0.13228 -0.24711,-0.75032 -0.44492,-1.37358 -0.1978,-0.62325 -0.44715,-1.38043 -0.55409,-1.68263 -0.48143,-1.36044 -0.88865,-2.56977 -0.88865,-2.63905 0,-0.0416 -0.0272,-0.12922 -0.0603,-0.19485 -0.0676,-0.13349 -0.31506,-0.85012 -0.45631,-1.32112 -0.40332,-1.34476 -0.561686,-1.6014 -0.952036,-1.54286 -0.16128,0.0243 -0.58445,0.0644 -0.94039,0.0895 -0.64715,0.0455 -0.64715,0.0455 -0.69684,0.52623 -0.14899,1.44112 -0.0721,3.00277 0.19014,3.8625 0.0958,0.3142 0.1591,0.59579 0.14059,0.62575 -0.0186,0.03 -0.004,0.25313 0.032,0.49591 0.0362,0.24281 0.0839,0.71961 0.10602,1.05957 0.0222,0.33996 0.0423,0.63355 0.0447,0.65245 0.002,0.0183 -0.0183,0.086 -0.0461,0.14919 -0.0278,0.0632 -0.02,0.17222 0.0175,0.24215 0.0444,0.083 0.0449,0.16896 0.002,0.2467 -0.0476,0.0852 -0.038,0.14817 0.0337,0.21987 0.0552,0.0552 0.13634,0.32527 0.18016,0.6 0.0834,0.523119 0.26771,1.210529 0.48906,1.824109 0.072,0.19974 0.13101,0.41089 0.13101,0.46924 0,0.0968 0.21589,0.63459 0.55476,1.38175 0.0726,0.1602 0.13203,0.31606 0.13203,0.34651 0,0.0911 0.736956,1.50626 0.897536,1.72347 0.26643,0.36037 -0.0374,0.48875 -0.41152,0.17385 -0.11621,-0.0978 -0.2113,-0.21139 -0.2113,-0.25244 0,-0.041 -0.10561,-0.29325 -0.234716,-0.56049 -0.35062,-0.7258 -0.54616,-1.16445 -0.55338,-1.24133 -0.003,-0.0379 -0.12127,-0.30937 -0.26162,-0.60357 -0.14035,-0.29419 -0.25518,-0.57651 -0.25518,-0.62742 0,-0.0508 -0.044,-0.17732 -0.0978,-0.28106 -0.0538,-0.10374 -0.11892,-0.34675 -0.14474,-0.54013 -0.0258,-0.19342 -0.0954,-0.40641 -0.15468,-0.4734 -0.0754,-0.0854 -0.0861,-0.14348 -0.0354,-0.19423 0.0507,-0.0508 0.027,-0.11781 -0.0791,-0.22385 -0.11634,-0.11638 -0.17157,-0.29851 -0.2381,-0.78537 -0.0752,-0.550479 -0.11638,-0.669499 -0.3127,-0.904479 -0.12434,-0.14878 -0.28382,-0.41026 -0.3544,-0.58095 -0.13409,-0.32422 -0.43648,-0.49329 -1.12419,-0.6285 -0.13219,-0.0259 -0.56488,-0.15224 -0.9615,-0.28047 -1.41101,-0.45637 -1.55186,-0.49398 -2.12497,-0.56761 -0.65772,-0.0846 -0.82655,-2e-5 -1.07291,0.53686 -0.1559,0.33978 -0.25151,0.52545 -0.50978,0.99008 -0.12196,0.21945 -0.20457,0.41619 -0.18355,0.4372 0.021,0.021 -0.0451,0.19689 -0.14695,0.39084 -0.12362,0.23538 -0.18875,0.47117 -0.19593,0.709239 -0.006,0.19607 -0.0435,0.45886 -0.0834,0.58378 -0.04,0.12494 -0.0661,0.28892 -0.0582,0.36446 0.0171,0.16224 -0.17988,0.2119 -0.44359,0.11169 -0.19448,-0.074 -0.21293,-1.0156 -0.0243,-1.24481 0.0466,-0.0566 0.12039,-0.288469 0.16393,-0.515109 0.0435,-0.22664 0.12532,-0.44639 0.1817,-0.48831 0.0564,-0.042 0.10251,-0.13942 0.10251,-0.21664 0,-0.0772 0.0796,-0.36739 0.17679,-0.64487 0.0972,-0.27747 0.19285,-0.55596 0.21252,-0.61886 0.0984,-0.31489 -0.59316,-0.43679 -2.08209,-0.367 -1.19594,0.0561 -1.18518,0.0485 -0.94288,0.65414 0.0936,0.23385 0.099,0.34183 0.034,0.6724 -0.0613,0.31163 -0.0577,0.47236 0.0175,0.77015 0.0522,0.20699 0.11729,0.6545 0.14468,0.994479 0.0274,0.33996 0.0633,0.72626 0.0797,0.85846 0.0433,0.34807 0.0971,1.41929 0.0917,1.82419 -0.002,0.19118 0.0294,0.43718 0.071,0.54667 0.0416,0.10945 0.0904,0.47303 0.10839,0.80792 0.0179,0.33486 0.0799,0.81515 0.13758,1.06727 0.0577,0.25216 0.10168,0.57678 0.0978,0.7214 -0.007,0.23241 0.15942,0.89901 0.35588,1.43177 0.0373,0.1011 0.0486,0.24424 0.0251,0.3181 -0.0284,0.0895 -0.005,0.14878 0.0703,0.17752 0.071,0.0273 0.0999,0.0927 0.078,0.17671 -0.0192,0.0734 0.006,0.18893 0.0556,0.2567 0.051,0.0695 0.0741,0.20575 0.0528,0.31224 -0.0228,0.11434 -0.008,0.18893 0.0379,0.18893 0.0942,0 0.28506,0.3599 0.28506,0.5376 0,0.0728 0.0427,0.16774 0.0948,0.21099 0.0521,0.0432 0.11304,0.17018 0.13539,0.28193 0.0947,0.47371 0.92432,1.52476 1.4437,1.82918 0.40505,0.23738 0.40505,0.23738 0.5657,0.0864 0.0915,-0.086 0.2562,-0.15388 0.38254,-0.15775 0.176,-0.006 0.23009,-0.0416 0.26153,-0.17467 0.0273,-0.11536 0.10686,-0.18527 0.25414,-0.22348 0.15673,-0.0406 0.2065,-0.0879 0.18478,-0.17549 -0.0177,-0.0713 0.0685,-0.22581 0.21253,-0.38128 0.13323,-0.14369 0.24227,-0.28041 0.24227,-0.30364 0,-0.0232 0.0532,-0.1011 0.11825,-0.17304 0.0651,-0.0719 0.0882,-0.12066 0.0515,-0.10843 -0.0367,0.0122 -0.0667,-0.008 -0.0667,-0.0465 0,-0.0377 0.0202,-0.0619 0.0446,-0.0538 0.0246,0.008 0.0358,-0.1816 0.0251,-0.42173 -0.0196,-0.43663 -0.0196,-0.43663 0.23981,-0.47808 0.29486,-0.0471 0.57324,-0.32168 0.81593,-0.80464 0.0835,-0.16611 0.17772,-0.34846 0.20939,-0.40512 0.0316,-0.0566 0.13058,-0.26408 0.21983,-0.46092 0.0892,-0.19689 0.20474,-0.35908 0.25668,-0.36055 0.0681,-10e-4 0.0829,-0.0603 0.0532,-0.2087 -0.0226,-0.11333 -0.0188,-0.20863 0.009,-0.21177 0.0274,-0.004 0.12548,-0.0143 0.218,-0.0238 0.0925,-0.0102 0.18009,-0.0538 0.1946,-0.0972 0.0429,-0.12881 0.18577,-0.0911 0.36042,0.0948 0.1634,0.17385 0.1634,0.17385 -0.0171,0.34125 -0.0993,0.0921 -0.20037,0.23008 -0.22472,0.30678 -0.0243,0.0766 -0.15035,0.29712 -0.28002,0.4898 -0.12967,0.19261 -0.23577,0.38981 -0.23577,0.43804 0,0.0483 -0.0467,0.12657 -0.1038,0.17385 -0.32507,0.26979 -0.51627,1.15841 -0.30659,1.42496 0.14205,0.18058 0.14205,0.18058 -0.2732,0.36909 -0.35292,0.16019 -0.41525,0.21527 -0.41525,0.36688 0,0.10598 -0.0714,0.2401 -0.17579,0.33044 -0.0967,0.0836 -0.30903,0.28344 -0.47187,0.44398 -0.16285,0.16061 -0.31735,0.29188 -0.34334,0.29188 -0.0259,0 -0.18696,0.13085 -0.35771,0.29099 -0.17076,0.15999 -0.34664,0.29441 -0.39087,0.29858 -0.21763,0.0206 -0.25211,0.0332 -0.25211,0.0927 0,0.0352 0.12296,0.15123 0.27325,0.25756 0.33794,0.23907 0.33797,0.2436 0.002,0.34828 -0.34855,0.10883 -0.40907,0.1072 -0.45458,-0.0122 z m 5.08638,-16.180109 c -0.0645,-0.32107 -0.16364,-0.65822 -0.22039,-0.74922 -0.0652,-0.10456 -0.14,-0.55957 -0.20319,-1.23622 -0.1808,-1.93627 -0.18274,-2.04896 -0.0458,-2.67995 0.0703,-0.32369 0.128,-0.6135 0.12833,-0.64401 3.3e-4,-0.0305 -0.5248,-0.0681 -1.16694,-0.0834 -2.38402,-0.0568 -2.60178,-0.0831 -3.2811,-0.39701 -0.64966,-0.30015 -0.61212,-0.32377 -0.79644,0.50141 -0.0804,0.36001 -0.21185,0.53183 -0.60978,0.79713 -0.19831,0.13228 -0.3654,0.27736 -0.37131,0.32256 -0.0481,0.36756 -0.0296,0.51742 0.0835,0.67778 0.0712,0.10088 0.12638,0.28638 0.12259,0.41207 -0.004,0.12575 0.0431,0.39851 0.10419,0.60628 0.0611,0.20776 0.14275,0.6857 0.18148,1.0621 0.0836,0.81257 0.0842,0.81341 0.60872,0.80597 0.40183,-0.006 0.66895,0.11596 0.49317,0.22458 -0.16409,0.1015 -0.0449,0.15857 0.42591,0.20436 0.7459,0.0724 1.11502,0.16448 1.8715,0.46658 0.4177,0.16692 0.87739,0.29623 1.17328,0.33035 0.67121,0.0773 1.26697,0.29653 1.4365,0.52849 0.19446,0.26608 0.22894,-0.33715 0.0657,-1.15 z m -6.07513,-0.0628 c 0,-0.0318 -0.0887,-0.0948 -0.19713,-0.13961 -0.27292,-0.11312 -0.35811,-0.34105 -0.4248,-1.1369 -0.0591,-0.7054 -0.18469,-1.2309 -0.35778,-1.49707 -0.0541,-0.0832 -0.13805,-0.27483 -0.1866,-0.42593 -0.22216,-0.69138 -0.19765,-0.68305 -0.9105,-0.3099 -0.34979,0.18302 -0.75962,0.36598 -0.91072,0.4064 -0.70558,0.18873 -0.74156,0.25491 -0.68777,1.26347 0.0944,1.77014 0.0848,1.75636 1.23721,1.76987 0.82729,0.0102 1.93323,0.1172 2.09292,0.20341 0.10657,0.0575 0.34517,-0.035 0.34517,-0.1339 z m -12.51258,-1.61728 c 0.17716,-0.0568 0.41075,-0.12065 0.51908,-0.14205 0.34837,-0.0687 0.14968,-0.10517 -0.72024,-0.13207 -0.48184,-0.0143 -1.01399,-0.0728 -1.22804,-0.1335 -0.20775,-0.0589 -0.6148,-0.16978 -0.90454,-0.24607 -0.50423,-0.13289 -1.39496,-0.51604 -1.6054,-0.69069 -0.3231,-0.26816 0.10745,-0.53591 0.45205,-0.28112 0.2666,0.19709 0.76909,0.38843 1.26809,0.48282 0.22663,0.0428 0.62841,0.12147 0.89282,0.17487 1.78685,0.36019 4.08638,0.10843 4.08638,-0.44752 0,-0.035 0.0713,-0.0638 0.15835,-0.0638 0.0871,0 0.26308,-0.0772 0.39108,-0.17161 0.12799,-0.0944 0.25959,-0.17161 0.29241,-0.17161 0.0329,0 0.37675,-0.13533 0.76424,-0.30095 0.3875,-0.1655 0.84138,-0.32378 1.00865,-0.35168 0.16727,-0.0279 0.47409,-0.13737 0.68185,-0.24335 0.20774,-0.10599 0.69895,-0.25805 1.09156,-0.33799 0.95515,-0.19444 1.06966,-0.26938 1.37793,-0.90142 0.19479,-0.39935 0.48899,-0.59665 0.64986,-0.43578 0.35034,0.35036 -0.48738,1.50413 -1.24503,1.71476 -0.21875,0.061 -0.5059,0.15062 -0.63811,0.19954 -0.13221,0.0489 -0.364,0.11149 -0.51509,0.13879 -0.15109,0.0275 -0.46015,0.15042 -0.68679,0.27324 -0.22664,0.1229 -0.54341,0.26404 -0.70395,0.31375 -0.16055,0.0497 -0.29189,0.11393 -0.29189,0.14267 0,0.20238 1.4982,0.12962 1.68971,-0.0821 0.0645,-0.0711 0.19742,-0.13003 0.29545,-0.13064 0.47244,-0.004 1.3801,-0.32453 1.3801,-0.48873 0,-0.15877 0.30168,-0.67692 0.41497,-0.71288 0.28967,-0.0919 0.60544,0.21161 0.55466,0.53318 -0.0141,0.0889 0.22261,0.0564 0.62781,-0.0858 0.21495,-0.0754 0.47038,-0.13736 0.56763,-0.13736 0.4199,0 0.59834,-0.18161 0.5468,-0.55621 -0.0785,-0.5708 0.22439,-0.73575 0.55503,-0.30228 0.10082,0.13228 0.21941,0.24038 0.2635,0.24038 0.11261,0 0.52164,-0.5483 0.52164,-0.69926 0,-0.0687 0.0268,-0.12494 0.0596,-0.12494 0.13435,0 0.0814,-0.73083 -0.0624,-0.86095 -0.0764,-0.0693 -0.23071,-0.28611 -0.34283,-0.48208 -0.32258,-0.56381 -0.28746,-1.00049 0.16348,-2.03258 0.10333,-0.23653 0.10195,-0.26041 -0.0248,-0.42159 -0.0739,-0.094 -0.24526,-0.38292 -0.38076,-0.64209 -0.13549,-0.25919 -0.33535,-0.54849 -0.44414,-0.64293 -0.10878,-0.0944 -0.21799,-0.2563 -0.24266,-0.35969 -0.0719,-0.3014 -1.30747,-1.51262 -1.79302,-1.75771 -0.95521,-0.48221 -4.20446,-0.99338 -4.72825,-0.74387 -0.11294,0.0538 -0.7307,0.15021 -1.37285,0.21438 -0.69788,0.0697 -1.25219,0.15938 -1.37799,0.22295 -0.16878,0.0854 -0.34555,0.0974 -0.89282,0.0608 -0.3753,-0.0251 -1.00688,-0.0539 -1.40349,-0.064 -0.42822,-0.0102 -0.93036,-0.0722 -1.23623,-0.15063 -0.90061,-0.23121 -1.78743,-0.0492 -3.78535,0.77712 -1.36217,0.56335 -2.65973,1.7892 -3.03598,2.86822 -0.31111,0.89221 -0.18598,3.58631 0.19923,4.28948 0.0517,0.0944 0.20557,0.46529 0.34185,0.82414 0.15078,0.39705 0.33522,0.74655 0.47114,0.89283 0.12284,0.13227 0.28819,0.32687 0.36744,0.43259 0.16452,0.21945 0.49489,0.45602 0.9804,0.70203 0.1846,0.0935 0.36872,0.23193 0.40918,0.30755 0.0521,0.0972 0.14379,0.13737 0.31369,0.13737 0.13207,0 0.41685,0.0577 0.63286,0.1284 1.47599,0.48218 3.86548,0.71643 4.6721,0.45799 z m 7.70026,-3.84702 c -0.0971,-0.0528 -0.23312,-0.22153 -0.30231,-0.37498 -0.14049,-0.31153 -0.47367,-0.39434 -0.66315,-0.16489 -0.29182,0.35352 -1.19989,0.4586 -1.62235,0.18772 -0.31025,-0.19892 -0.12808,-0.50415 0.22153,-0.37125 0.12068,0.0459 0.24295,0.0332 0.42866,-0.0444 0.14289,-0.0597 0.33602,-0.13758 0.42917,-0.17304 0.32633,-0.12412 -0.009,-0.19383 -0.89283,-0.18547 -1.08747,0.0102 -1.56846,-0.0909 -1.89382,-0.39768 -0.29252,-0.27588 -0.1586,-0.28787 -0.9449,0.0846 -0.36616,0.17345 -0.97612,0.38914 -1.3656,0.48291 -0.38713,0.0932 -0.81204,0.21277 -0.94425,0.26572 -0.13219,0.053 -0.35322,0.11454 -0.49115,0.13696 -0.13794,0.0224 -0.38742,0.11352 -0.55441,0.20219 -0.41602,0.22119 -1.13688,0.33624 -1.83895,0.29351 -2.13351,-0.12984 -2.66589,-0.17569 -2.83746,-0.24415 -0.10633,-0.0424 -0.282,-0.0771 -0.39038,-0.0771 -0.10836,0 -0.39223,-0.0831 -0.6308,-0.18485 -1.1421,-0.48677 -1.56251,-1.1373 -1.43571,-2.22158 0.044,-0.37699 0.099,-0.46887 0.80347,-1.34474 0.0419,-0.0522 0.10542,-0.0948 0.14106,-0.0948 0.0356,0 0.17131,-0.11046 0.30149,-0.24536 0.13018,-0.13493 0.49937,-0.38705 0.82045,-0.56019 0.32106,-0.17303 0.63012,-0.35363 0.68678,-0.4011 0.10333,-0.0866 0.25434,-0.14308 1.71697,-0.64185 2.04396,-0.69708 4.85662,-0.54555 6.37638,0.34355 0.22962,0.13431 0.22962,0.13431 0.45261,-0.0613 0.41607,-0.36532 1.65213,-0.90626 2.06978,-0.90581 1.24967,0.001 2.70472,0.62406 3.61036,1.54505 0.75128,0.76404 0.31893,2.21614 -1.08926,3.6585 -0.37059,0.37959 -0.37059,0.37959 -0.11228,0.64411 0.14206,0.14553 0.22885,0.26498 0.19287,0.26555 -0.036,5.7e-4 0.0557,0.10354 0.20386,0.22886 0.43535,0.36832 0.0876,0.64552 -0.44582,0.35542 z m -9.66307,-0.6838 c 0.21589,-0.0306 0.76295,-0.21694 1.01437,-0.34577 0.0944,-0.0485 0.32622,-0.11026 0.51509,-0.13757 0.52535,-0.076 1.36268,-0.29628 1.73021,-0.4553 0.18158,-0.0785 0.58511,-0.23569 0.89675,-0.34914 0.59968,-0.21832 0.66231,-0.29819 0.48854,-0.6229 -0.0429,-0.0803 -0.10721,-0.36407 -0.14284,-0.63076 -0.0356,-0.26669 -0.0809,-0.59915 -0.1005,-0.73879 -0.0226,-0.16101 0.005,-0.33526 0.0754,-0.47669 0.2854,-0.57211 0.24512,-0.6965 -0.31373,-0.96887 -0.71359,-0.34779 -1.8329,-0.62708 -2.53086,-0.6315 -0.52828,-0.004 -2.17708,0.18588 -2.38838,0.27415 -0.12373,0.0517 -0.4328,0.14553 -0.68679,0.20869 -0.40822,0.1015 -0.82102,0.27384 -1.93558,0.80839 -1.40459,0.67366 -2.34367,1.76634 -2.13072,2.47925 0.3222,1.07864 0.87885,1.40014 2.67735,1.54627 1.58221,0.12861 2.15064,0.13676 2.83165,0.0406 z m -1.95163,-1.99689 c -0.0931,-0.2043 0.0789,-0.43233 0.46369,-0.61495 0.12549,-0.0595 0.42656,-0.27763 0.66902,-0.48463 0.48167,-0.41117 0.5728,-0.43928 0.80766,-0.2491 0.1817,0.14715 0.25151,0.0659 -0.72569,0.84544 -0.93051,0.74241 -1.07789,0.80346 -1.21468,0.50324 z m 11.38609,0.63817 c 0.77969,-0.82091 0.95336,-1.10187 0.96141,-1.55537 0.004,-0.21286 0.0287,-0.55701 0.0555,-0.76475 0.18229,-1.41506 -3.3984,-2.4681 -4.42349,-1.3009 -0.0566,0.0644 -0.17255,0.15286 -0.25754,0.19647 -0.22245,0.11394 -0.19134,0.23771 0.10981,0.43702 0.50301,0.33287 0.86691,1.11412 0.73159,1.57067 -0.0826,0.27873 -0.59241,1.08346 -0.79363,1.25279 -0.49237,0.41429 0.14456,0.6063 2.13912,0.64487 1.00218,0.0203 1.00218,0.0203 1.47721,-0.48076 z m -2.12167,-0.88497 c -0.1817,-0.10578 0.008,-1.5486 0.2406,-1.83004 0.25128,-0.30405 0.6135,-0.0143 0.52295,0.4191 -0.0328,0.15673 -0.091,0.51665 -0.1295,0.79995 -0.0868,0.63901 -0.27468,0.82012 -0.63404,0.61099 z m -1.67219,0.11515 c 0.4029,-0.61488 0.3563,-1.40162 -0.10606,-1.79066 -0.49113,-0.41327 -0.71483,0.70603 -0.3231,1.61663 0.16315,0.37924 0.2671,0.4214 0.42917,0.17405 z m 12.81955,2.43549 c -0.0559,-0.0355 -0.22586,-0.0838 -0.37772,-0.10741 -0.7559,-0.11842 -1.61536,-0.49956 -1.61536,-0.71651 0,-0.25318 0.31796,-0.29614 0.70622,-0.0954 0.24469,0.12656 0.97489,0.35228 1.39034,0.4299 0.27826,0.052 0.39832,0.032 0.88127,-0.14654 0.30751,-0.11353 0.79091,-0.28436 1.07421,-0.3794 1.3577,-0.45553 1.67797,-0.61839 2.30362,-1.17158 0.364596,-0.32234 0.366376,-0.39152 0.0169,-0.65248 -0.17517,-0.13085 -0.17662,-0.13065 -0.50978,0.0652 -0.2868,0.16855 -0.41192,0.1977 -0.88354,0.2052 -0.84999,0.0143 -1.12177,0.12331 -1.54456,0.62325 -0.5203,0.61525 -0.92408,0.7683 -1.3906,0.52707 -0.15861,-0.0821 -0.31679,-0.1009 -0.59899,-0.0713 -0.25159,0.0263 -0.47744,0.006 -0.65672,-0.0573 -0.15029,-0.0536 -0.40558,-0.0986 -0.56734,-0.10027 -0.93302,-0.0102 -1.45046,-0.75726 -1.08162,-1.56291 0.22606,-0.49378 0.17636,-0.53025 -0.2084,-0.15286 -0.25612,0.25126 -0.3029,0.33492 -0.26642,0.47647 0.0938,0.36369 0.1162,0.60975 0.12474,1.36813 0.0116,1.03097 0.23652,1.20674 1.89749,1.48297 0.63517,0.10557 1.45218,0.12799 1.3063,0.0357 z m 1.76849,-0.008 c 0.21113,-0.0736 0.32445,-0.22804 0.25261,-0.34428 -0.0211,-0.0341 -0.16023,2.5e-4 -0.30929,0.0762 -0.14905,0.076 -0.40247,0.15367 -0.56316,0.17263 -0.6573,0.0772 -0.72914,0.15673 -0.14728,0.16305 0.306,0.004 0.6512,-0.0271 0.76713,-0.0677 z m 1.2374,-0.25275 c -0.0198,-0.18893 -0.0198,-0.18893 0.80532,-0.19627 0.963496,-0.008 1.726496,-0.29359 2.260346,-0.84395 0.26962,-0.27794 0.26962,-0.27794 0.0977,-0.67477 -0.45095,-1.04098 -1.864476,-2.80176 -2.519916,-3.13898 -0.2431,-0.12514 -0.40948,-0.0779 -0.19208,0.0546 0.59253,0.36075 0.72854,0.4831 0.86878,0.78142 0.146696,0.31213 0.161516,0.68631 0.0388,0.98309 -0.0317,0.0768 0.0536,0.1706 0.300626,0.33059 0.52585,0.34074 0.58175,0.45218 0.39574,0.7889 -0.33933,0.61431 -1.017426,1.07647 -2.109536,1.43784 -0.4285,0.14185 -0.50926,0.66648 -0.10258,0.66648 0.1515,0 0.17365,-0.0267 0.15669,-0.18893 z m -6.78462,-1.73413 c 0,-0.68213 -0.0702,-0.77747 -0.22899,-0.31127 -0.0807,0.23701 -0.0884,0.36598 -0.0334,0.56661 0.15983,0.58387 0.26244,0.48404 0.26244,-0.25534 z m 4.5205,-0.10964 c 0.46305,-0.23075 0.51895,-0.33922 0.38199,-0.74114 -0.14224,-0.41747 -0.14261,-0.41762 -1.05648,-0.42424 -0.70868,-0.004 -0.8286,-0.0245 -1.16754,-0.18873 -0.49802,-0.24134 -0.52552,-0.2374 -0.9531,0.13655 -0.6822,0.59679 -0.42511,1.17886 0.53147,1.20334 1.19207,0.0306 1.35788,0.0422 1.55483,0.10987 0.29812,0.10252 0.31567,0.10007 0.70883,-0.0958 z m -1.57195,-0.12149 c -0.38769,-0.19668 -0.34616,-0.67849 0.0619,-0.71787 0.26994,-0.0261 0.39573,0.0632 0.44388,0.31512 0.0673,0.35231 -0.19434,0.56072 -0.50573,0.40275 z m 3.87618,-0.96999 c 0.41355,0.17284 1.00769,-0.31067 0.90103,-0.7332 -0.17377,-0.68836 -1.66282,-0.88259 -2.55769,-0.33364 -0.28473,0.17467 -0.28159,0.31308 0.0171,0.75705 0.13222,0.19648 0.24038,0.39849 0.24038,0.44896 0,0.1714 0.42724,0.14471 0.80715,-0.0503 0.33628,-0.17284 0.3764,-0.17875 0.59196,-0.0887 z m -0.91712,-0.23988 c -0.22175,-0.22174 0.051,-0.75668 0.38583,-0.75668 0.30669,0 0.26806,0.6573 -0.0486,0.82675 -0.1667,0.0893 -0.18093,0.0862 -0.33726,-0.0701 z m -1.54056,-0.5482 c 0.0656,-0.32131 0.23589,-0.58495 0.48976,-0.75792 0.25199,-0.17162 0.25199,-0.17162 -5e-5,-0.19301 -0.41113,-0.0347 -2.59036,0.52425 -2.59036,0.66431 0,0.10679 0.89621,0.38816 1.33923,0.42059 0.73581,0.0538 0.72262,0.0561 0.76142,-0.13412 z m -11.41223,-4.78296 c 0.3004,-0.11536 0.0997,-0.23294 -0.38928,-0.2282 -0.56086,0.006 -0.84937,0.0752 -0.64124,0.15511 0.0667,0.0257 0.14924,0.0294 0.18331,0.008 0.0341,-0.0212 0.11628,-0.006 0.18266,0.032 0.13499,0.0787 0.49843,0.0966 0.66455,0.0328 z m 10.67846,29.319299 c -0.0981,-0.0143 -0.29901,-0.15184 -0.44642,-0.30358 -0.39608,-0.4079 -0.12135,-0.59335 0.83084,-0.56086 0.0755,0.002 0.38461,-0.0536 0.68679,-0.12453 0.30219,-0.0711 0.6519,-0.12943 0.77716,-0.12983 0.12524,-2.7e-4 0.2914,-0.0346 0.36925,-0.0762 0.42505,-0.22749 0.60595,0.23952 0.22716,0.58645 -0.13219,0.12106 -0.24037,0.26961 -0.24037,0.33002 0,0.0858 -0.10193,0.11903 -0.46358,0.15164 -0.25497,0.023 -0.63099,0.0717 -0.8356,0.10843 -0.3714,0.0664 -0.56852,0.0705 -0.90523,0.0183 z m -1.596,-2.56922 c -0.10529,-0.14654 -0.17224,-0.29735 -0.1488,-0.33527 0.0234,-0.0379 0.009,-0.0689 -0.0324,-0.0689 -0.0413,0 -0.32896,-0.25499 -0.63934,-0.5666 -0.59839,-0.60084 -1.1466,-1.0817 -1.23319,-1.0817 -0.0287,0 -0.0522,-0.064 -0.0522,-0.14206 0,-0.2286 0.5748,0.0508 0.84521,0.41069 0.0451,0.0599 0.19835,0.19606 0.3406,0.30227 0.14227,0.10619 0.41428,0.38438 0.60448,0.61807 0.1902,0.23369 0.4215,0.51043 0.51399,0.61494 0.0925,0.10456 0.16815,0.24803 0.16815,0.31889 0,0.23341 -0.17186,0.20035 -0.36648,-0.0703 z"
       id="path1-2"
       sodipodi:nodetypes="sssccssssscccssssscssccsccsssssssssssssscsssssssscssscsscsscscssscssssscscsssscsscsssssccsssssssssscscssssssssscccsssscsccssscccssccsssssssssssssssssssssssscssssssssssssscsssssssssssscssscsscscccscscssscsscssssssssssssssssscsssssssccsssssscsssccssssssscscscsssscscssscscsssccscccsssssscsccsscssscscssscsssssssssssccssscsccscscssssssssssscscscssccsssssssscsssscsssscssscsssccsscssssssscssscsscscsssssssssscsssscsscssccsssssccccssssssssscsccsssccssccssssssscccsssssssscscscccssssssscssssssscsscsscsssssscsssccssssscsccsscsssssccsccccsssccsscsssssssssssssccsssssssssscssssscsssscscssssssscscccssssccscsssccssssccsssssssccsssssssscscsssscscssssssssssssscccssssssccscssssssscssssssssssssscssssssccccscsccccssscsssssscccccccssccsscssscsscssssscccssccssssssccsscccssccscssccsssssssssssssss" />
  </g>
</svg>
