<?xml version="1.0" encoding="UTF-8" standalone="no"?>
<!-- Created with Inkscape (http://www.inkscape.org/) -->

<svg
   width="8.5in"
   height="11in"
   viewBox="0 0 215.9 279.4"
   version="1.1"
   id="svg1"
   inkscape:version="1.4.3 (0d15f75, 2025-12-25)"
   sodipodi:docname="centre-logo.svg"
   xmlns:inkscape="http://www.inkscape.org/namespaces/inkscape"
   xmlns:sodipodi="http://sodipodi.sourceforge.net/DTD/sodipodi-0.dtd"
   xmlns="http://www.w3.org/2000/svg"
   xmlns:svg="http://www.w3.org/2000/svg">
  <sodipodi:namedview
     id="namedview1"
     pagecolor="#ffffff"
     bordercolor="#000000"
     borderopacity="0.25"
     inkscape:showpageshadow="2"
     inkscape:pageopacity="0.0"
     inkscape:pagecheckerboard="0"
     inkscape:deskcolor="#d1d1d1"
     inkscape:document-units="mm"
     inkscape:zoom="0.62263258"
     inkscape:cx="263.39772"
     inkscape:cy="587.02357"
     inkscape:window-width="2560"
     inkscape:window-height="1537"
     inkscape:window-x="2552"
     inkscape:window-y="-8"
     inkscape:window-maximized="1"
     inkscape:current-layer="layer1" />
  <defs
     id="defs1" />
  <g
     inkscape:label="Layer 1"
     inkscape:groupmode="layer"
     id="layer1">
    <rect
       style="fill:#ffffff;fill-opacity:1;stroke:none;stroke-width:0.4216;stroke-linecap:round"
       id="rect1"
       width="430.51025"
       height="64.923805"
       x="-135.3063"
       y="95.446449"
       inkscape:export-filename="logo.png"
       inkscape:export-xdpi="96"
       inkscape:export-ydpi="96" />
    <path
       style="fill:#ff00ff;fill-opacity:1;stroke:none;stroke-width:0.811165;stroke-opacity:1"
       d="m -102.98592,156.87403 c -0.18028,-0.15836 -0.24588,-0.28933 -0.31798,-0.63526 -0.05,-0.23973 -0.1261,-0.54402 -0.16921,-0.67624 -0.0431,-0.13227 -0.0811,-0.27127 -0.0844,-0.30906 -0.003,-0.0377 -0.0718,-0.20775 -0.15208,-0.37773 -0.41928,-0.88715 -0.75645,-1.98444 -0.63318,-2.06062 0.0586,-0.0363 0.0608,-0.0595 0.007,-0.0773 -0.0421,-0.0143 -0.0842,-0.14919 -0.0936,-0.3002 -0.0171,-0.27468 -0.0171,-0.27468 0.25761,-0.25183 0.35997,0.03 0.4541,0.13248 0.45768,0.49885 0.002,0.16693 0.0489,0.35435 0.10557,0.41829 0.12578,0.14206 0.0637,0.26096 -0.13808,0.26457 -0.12414,0.002 -0.11238,0.0183 0.0673,0.0974 0.24165,0.10518 0.32641,0.23009 0.39792,0.58669 0.0265,0.13228 0.1402,0.37166 0.25265,0.5321 0.11245,0.1604 0.18578,0.32194 0.16295,0.3589 -0.0228,0.0369 0.0271,0.19933 0.11094,0.3607 0.31802,0.61244 0.34532,0.68098 0.30895,0.77576 -0.0205,0.0536 0.007,0.18322 0.0623,0.28833 0.31109,0.59636 -0.10347,0.9449 -0.60263,0.50664 z m -0.96809,-3.96708 c -0.0251,-0.0251 -0.0664,-0.0251 -0.0916,0 -0.0251,0.0251 -0.005,0.0457 0.0458,0.0457 0.0504,0 0.071,-0.0205 0.0458,-0.0457 z m -0.18314,-0.0573 c 0,-0.0183 -0.0155,-0.0343 -0.0343,-0.0343 -0.019,0 -0.0343,0.0163 -0.0343,0.0343 0,0.0183 0.0155,0.0343 0.0343,0.0343 0.019,0 0.0343,-0.0163 0.0343,-0.0343 z m 17.495069,1.00977 c -0.368731,-0.36652 -0.670062,-0.69156 -0.669618,-0.72234 4.55e-4,-0.0308 -0.09051,-0.13288 -0.202142,-0.2267 -0.11163,-0.094 -0.327743,-0.36236 -0.480265,-0.59652 -0.419779,-0.64442 -0.779433,-1.06413 -1.101166,-1.28503 -0.106921,-0.0734 -0.155816,-0.18404 -0.166863,-0.37772 -0.0106,-0.18466 -0.103537,-0.4082 -0.285414,-0.68598 -0.148397,-0.22664 -0.307011,-0.49706 -0.352493,-0.60092 -0.04551,-0.10395 -0.114665,-0.18893 -0.153756,-0.18893 -0.03909,0 -0.114849,-0.10477 -0.16835,-0.23281 -0.05346,-0.12799 -0.201451,-0.35208 -0.328806,-0.49792 -0.222397,-0.25466 -0.468594,-0.70534 -0.468594,-0.85779 0,-0.0401 -0.06855,-0.16917 -0.15231,-0.28681 -0.08377,-0.1176 -0.293091,-0.50874 -0.465165,-0.86908 -0.172079,-0.36036 -0.414643,-0.83254 -0.539051,-1.04927 -0.124407,-0.21673 -0.206506,-0.42591 -0.182454,-0.46484 0.02409,-0.0389 -0.02018,-0.17426 -0.09844,-0.30081 -0.0782,-0.12656 -0.142386,-0.27278 -0.14261,-0.32498 -2.37e-4,-0.0522 -0.0477,-0.18567 -0.105514,-0.29642 -0.05776,-0.11088 -0.08948,-0.2422 -0.07042,-0.29188 0.01916,-0.0497 0.0049,-0.0903 -0.0309,-0.0903 -0.09734,0 -0.281708,-0.484 -0.237459,-0.62339 0.02101,-0.0662 0.0057,-0.14044 -0.03326,-0.16469 -0.03934,-0.0243 -0.07146,-0.10415 -0.07146,-0.17752 0,-0.0734 -0.02847,-0.13329 -0.06334,-0.13329 -0.03487,0 -0.100481,-0.11251 -0.145849,-0.24998 -0.04535,-0.13758 -0.202306,-0.49258 -0.34872,-0.78911 -0.14642,-0.29649 -0.266215,-0.5756 -0.266215,-0.62024 0,-0.0446 -0.04186,-0.13003 -0.09306,-0.18955 -0.204383,-0.2381 -0.937117,-1.8302 -0.937117,-2.03616 0,-0.0461 -0.04331,-0.10027 -0.09632,-0.12045 -0.05297,-0.0204 -0.163499,-0.2168 -0.245612,-0.43659 -0.08212,-0.21981 -0.190912,-0.446 -0.241768,-0.50266 -0.117682,-0.13106 -0.312948,-0.69371 -0.266727,-0.76852 0.01916,-0.0312 -0.01,-0.0738 -0.06465,-0.0948 -0.05483,-0.021 -0.118171,-0.13085 -0.140794,-0.24386 -0.02262,-0.11312 -0.08709,-0.25159 -0.143241,-0.30776 -0.05613,-0.0561 -0.136371,-0.23208 -0.178214,-0.39092 -0.04186,-0.15876 -0.119252,-0.3562 -0.171999,-0.43858 -0.123695,-0.19321 -0.373452,-0.84982 -0.374045,-0.9834 -2.51e-4,-0.0566 -0.04663,-0.19158 -0.103049,-0.29975 -0.134762,-0.25839 -0.133355,-0.26238 0.08362,-0.23707 0.160789,0.0183 0.206079,0.0795 0.331548,0.44494 0.0799,0.23277 0.197028,0.50212 0.260198,0.59852 0.06318,0.0964 0.114869,0.23347 0.114869,0.30452 0,0.0711 0.04347,0.21897 0.09669,0.32865 0.05322,0.10965 0.209176,0.44665 0.346668,0.74885 0.137492,0.30219 0.279413,0.60311 0.315389,0.66869 0.03593,0.0657 0.06538,0.1602 0.06538,0.2104 0,0.0501 0.161238,0.41368 0.358307,0.8079 0.197068,0.39422 0.360126,0.73223 0.362349,0.7511 0.0024,0.0183 0.05572,0.11169 0.118926,0.20603 0.104046,0.15551 0.160849,0.26704 0.419842,0.82417 0.04388,0.0944 0.253563,0.51164 0.465924,0.92714 0.212356,0.41551 0.407263,0.85271 0.433131,0.97156 0.02589,0.11882 0.108755,0.27195 0.184208,0.34023 0.08591,0.0777 0.129972,0.1926 0.117926,0.30757 -0.0106,0.10088 0.0161,0.22603 0.05929,0.27806 0.142649,0.17182 0.374092,0.84044 0.33832,0.97724 -0.02368,0.0907 0.05167,0.233 0.231515,0.4373 0.146664,0.16652 0.287768,0.39905 0.313571,0.51653 0.0258,0.11739 0.13252,0.35491 0.237138,0.52763 0.104618,0.17283 0.210058,0.37995 0.234304,0.46047 0.02426,0.0805 0.182231,0.4027 0.351074,0.71587 0.168839,0.31319 0.306992,0.60505 0.306992,0.64856 0,0.0436 0.07382,0.14838 0.16401,0.23322 0.09206,0.0864 0.150536,0.20565 0.133294,0.27163 -0.01691,0.0646 0.07886,0.29944 0.212734,0.52182 0.133906,0.22238 0.26036,0.45324 0.281013,0.513 0.02061,0.0597 0.136983,0.17101 0.258519,0.2474 0.176402,0.11067 0.228878,0.1977 0.260149,0.43088 0.02798,0.20905 0.10904,0.36499 0.284711,0.54808 0.135047,0.14083 0.326818,0.42588 0.426161,0.63363 0.09936,0.20775 0.256312,0.48591 0.348811,0.61811 0.170979,0.24439 0.283038,0.37997 1.090278,1.31918 0.250253,0.29115 0.454999,0.55066 0.454999,0.57669 0,0.0675 0.461529,0.62864 0.794926,0.96649 0.351586,0.35626 0.508999,0.69262 0.366397,0.78292 -0.141142,0.0893 -0.110101,0.11189 -0.835915,-0.60948 z m -17.682839,-2.08098 c -0.21497,-0.0795 -0.37552,-0.34028 -0.2802,-0.45513 0.0578,-0.0695 0.0572,-0.11373 -0.002,-0.17284 -0.12788,-0.12779 -0.0918,-0.25807 0.0716,-0.25807 0.1735,0 0.0928,-0.11067 -0.10782,-0.14797 -0.0913,-0.0163 -0.16774,-0.15265 -0.26456,-0.47024 -0.0749,-0.24553 -0.16765,-0.48505 -0.2062,-0.53226 -0.0481,-0.0589 -0.0453,-0.11556 0.009,-0.18078 0.061,-0.0736 0.0541,-0.10455 -0.0303,-0.13696 -0.06,-0.023 -0.0891,-0.0744 -0.0645,-0.11414 0.0245,-0.0397 0.009,-0.11536 -0.0352,-0.16834 -0.0947,-0.11414 -0.27999,-0.90291 -0.31482,-1.34009 -0.0343,-0.43084 -0.14678,-0.95189 -0.26687,-1.23621 -0.0558,-0.13227 -0.14895,-0.47917 -0.20693,-0.77101 -0.058,-0.29185 -0.1677,-0.64152 -0.24383,-0.77708 -0.0762,-0.13553 -0.1241,-0.26954 -0.10664,-0.29783 0.0175,-0.0283 -0.0427,-0.20701 -0.13372,-0.39719 -0.091,-0.19016 -0.1785,-0.48508 -0.1944,-0.65532 -0.0159,-0.17019 -0.0647,-0.37647 -0.10851,-0.45826 -0.0438,-0.0817 -0.0628,-0.17589 -0.0423,-0.20911 0.0205,-0.0332 -0.07,-0.47296 -0.20112,-0.97725 -0.35725,-1.37389 -0.42135,-1.59739 -0.50079,-1.74583 -0.20335,-0.37993 -0.28173,-1.01715 -0.32891,-2.67367 -0.0634,-2.22612 -0.0633,-2.22381 -0.14869,-2.30925 -0.0514,-0.0514 -0.11915,-0.0481 -0.22981,0.0102 -0.0863,0.0461 -0.34441,0.1278 -0.57358,0.1812 -0.22918,0.0534 -0.51906,0.15755 -0.6442,0.23145 -0.12515,0.0738 -0.30053,0.13431 -0.38978,0.13431 -0.28754,0 -2.81415,1.3384 -2.83936,1.5041 -0.033,0.21685 0.29358,0.19647 0.44033,-0.0275 0.23943,-0.36543 0.55725,-0.15817 0.39175,0.25533 -0.10838,0.27085 -0.10838,0.27085 0.31338,0.69639 0.23196,0.23404 0.42177,0.47105 0.42179,0.5267 2e-5,0.0557 0.15455,0.23424 0.34339,0.39686 0.18886,0.16265 0.34336,0.33609 0.34336,0.38545 0,0.0493 0.0932,0.2071 0.20719,0.35048 0.21857,0.27505 0.18119,0.51532 -0.0885,0.56891 -0.12178,0.0243 -0.5994,-0.3719 -0.5994,-0.49708 0,-0.0463 -0.20861,-0.29125 -0.46358,-0.54433 -1.14522,-1.13667 -1.06753,-1.08547 -1.35833,-0.89494 -0.28108,0.18425 -0.51295,0.0795 -0.51422,-0.23208 -0.002,-0.39217 -0.0501,-0.42871 -0.48139,-0.36298 -0.51703,0.0787 -0.79963,0.1975 -1.19199,0.50036 -0.18437,0.14227 -0.3595,0.25883 -0.38922,0.25883 -0.0297,0 -0.10572,0.13533 -0.16888,0.30075 -0.17134,0.44867 -0.58432,0.60989 -0.58262,0.22745 0.002,-0.55983 0.91862,-1.59498 1.7163,-1.93926 0.0566,-0.0245 0.19574,-0.0848 0.30905,-0.13413 0.11332,-0.0493 0.29102,-0.12289 0.3949,-0.16366 0.25603,-0.10007 0.24569,-0.23972 -0.0903,-1.2198 -0.15355,-0.4479 -0.32537,-0.98432 -0.38184,-1.19206 -0.0565,-0.20777 -0.13,-0.46527 -0.1634,-0.57226 -0.0716,-0.22939 0.0207,-0.52661 0.16348,-0.52661 0.10408,0 0.38622,0.42508 0.38622,0.58189 0,0.0514 0.105,0.33544 0.23333,0.63136 0.12832,0.29593 0.27088,0.72347 0.31678,0.95011 0.1664,0.82168 0.26985,0.94231 0.57204,0.6671 0.17049,-0.1553 0.93303,-0.5637 1.05283,-0.56393 0.0441,-8e-5 0.16778,-0.0436 0.27471,-0.0968 0.32558,-0.16183 0.52481,-0.23769 0.8244,-0.31375 0.15761,-0.0399 0.29738,-0.10517 0.31059,-0.14491 0.0132,-0.0397 0.34785,-0.15877 0.74362,-0.26484 1.32684,-0.3554 1.37391,-0.39827 0.97447,-0.88732 -0.14309,-0.17528 -0.3701,-0.48858 -0.50444,-0.69632 -0.13433,-0.20775 -0.37265,-0.57572 -0.52961,-0.81771 -0.15695,-0.24199 -0.28535,-0.48724 -0.28535,-0.54499 0,-0.0577 -0.0584,-0.16876 -0.12981,-0.24682 -0.0714,-0.0781 -0.22005,-0.31177 -0.33033,-0.51954 -0.11028,-0.20774 -0.29021,-0.51678 -0.39984,-0.68676 -0.10963,-0.16998 -0.25925,-0.43268 -0.33248,-0.58379 -0.0732,-0.15103 -0.20585,-0.42424 -0.2947,-0.60701 -0.0889,-0.18283 -0.29832,-0.50728 -0.46547,-0.72112 -0.3109,-0.39776 -0.71795,-1.24438 -0.86387,-1.79673 -0.0449,-0.16999 -0.12064,-0.38631 -0.16829,-0.48076 -0.31594,-0.6261 -0.52258,-1.1018 -0.58172,-1.33923 -0.12414,-0.49824 -0.24522,-0.8915 -0.30156,-0.97928 -0.0305,-0.0475 -0.0373,-0.14369 -0.0151,-0.21351 0.0228,-0.0717 -0.003,-0.16326 -0.0599,-0.21024 -0.0551,-0.0459 -0.12143,-0.25872 -0.14737,-0.47328 -0.026,-0.21455 -0.0756,-0.42576 -0.11033,-0.46936 -0.0347,-0.0436 -0.0447,-0.15286 -0.0222,-0.2426 0.0228,-0.0909 -0.005,-0.25156 -0.0622,-0.3622 -0.0568,-0.10944 -0.0879,-0.22366 -0.0692,-0.2539 0.0187,-0.0301 0.035,-0.85034 0.0363,-1.82241 0.002,-1.10628 0.0294,-1.81814 0.0749,-1.90305 0.0399,-0.0746 0.067,-0.36935 0.0602,-0.65498 -0.0187,-0.7858 0.20084,-0.97738 0.54994,-0.47963 0.0983,0.14022 0.10751,0.24223 0.0585,0.64715 -0.032,0.2644 -0.0405,0.62699 -0.0187,0.80576 0.0288,0.23664 0.009,0.37116 -0.0717,0.49475 -0.0791,0.12066 -0.0938,0.2156 -0.0508,0.32869 0.0333,0.0874 0.0358,0.31455 0.006,0.50468 -0.14773,0.93452 0.0935,3.56109 0.35245,3.83772 0.0336,0.0359 0.0611,0.12331 0.0611,0.19424 0,0.0709 0.0719,0.31978 0.15977,0.55286 0.0879,0.23308 0.19896,0.53195 0.24684,0.66417 0.27667,0.76389 0.42931,1.13809 0.48829,1.19709 0.0367,0.0367 0.0666,0.13166 0.0666,0.21111 0,0.0795 0.0911,0.28825 0.20255,0.46392 0.1114,0.17568 0.23757,0.45211 0.28038,0.61437 0.0428,0.16224 0.17697,0.44953 0.29815,0.63839 0.29634,0.4619 0.33119,0.52329 0.70157,1.23621 0.43845,0.84391 0.63275,1.18248 0.88685,1.54527 0.11905,0.16998 0.30249,0.47905 0.40762,0.68679 0.10513,0.20776 0.26502,0.47612 0.3553,0.59637 0.0903,0.12025 0.16415,0.25026 0.16415,0.28895 0,0.0673 0.27258,0.37683 0.97728,1.1097 0.17866,0.18588 0.37295,0.45298 0.43176,0.59373 0.0588,0.14063 0.16759,0.31242 0.24176,0.38152 0.18344,0.17079 0.17062,0.25652 -0.0792,0.53012 -0.21271,0.23289 -0.21381,0.23797 -0.16937,0.78792 0.0246,0.30445 0.0532,0.72352 0.0636,0.93126 0.0104,0.20777 0.0537,0.48591 0.0962,0.61812 0.0426,0.13227 0.0963,0.53397 0.11954,0.89282 0.0724,1.12041 0.0938,1.31974 0.16138,1.5038 0.0361,0.0984 0.10323,0.36197 0.14917,0.58584 0.0459,0.22385 0.15818,0.60537 0.24944,0.8478 0.0913,0.24244 0.17696,0.61559 0.19043,0.8292 0.0296,0.4693 0.1431,0.9079 0.32064,1.23913 0.0725,0.13534 0.1319,0.29413 0.1319,0.35281 0,0.0587 0.0631,0.2291 0.14031,0.37874 0.0771,0.1496 0.15003,0.39569 0.16191,0.5468 0.0118,0.15102 0.0526,0.35196 0.0905,0.44639 0.0379,0.0944 0.10339,0.32622 0.1455,0.5151 0.27446,1.23101 0.42326,1.97377 0.42326,2.11281 0,0.0882 0.0331,0.19362 0.0736,0.23405 0.0405,0.0406 0.0885,0.22437 0.10674,0.40863 0.0467,0.47245 0.0655,0.59538 0.10882,0.71279 0.0209,0.0566 0.0752,0.24209 0.12067,0.41207 0.0454,0.16998 0.13972,0.46357 0.20949,0.65245 0.25203,0.68236 0.3432,1.00728 0.30154,1.07467 -0.0234,0.0379 0.0265,0.14205 0.11079,0.23181 0.25071,0.26686 -0.0112,0.51157 -0.39529,0.36946 z m 7.220239,-18.15262 c -0.02045,-0.0532 -0.135352,-0.13615 -0.255389,-0.18425 -0.624897,-0.25028 -1.969582,-1.37376 -1.969582,-1.64557 0,-0.0605 -0.07924,-0.18446 -0.176136,-0.27542 -0.09687,-0.0909 -0.22234,-0.27411 -0.278806,-0.40687 -0.05646,-0.13269 -0.164724,-0.35931 -0.240566,-0.50343 -0.25562,-0.48572 -0.34463,-0.81076 -0.25244,-0.92184 0.0666,-0.0803 0.0586,-0.11353 -0.0404,-0.16896 -0.17292,-0.0968 -0.32234,-0.48966 -0.27543,-0.72421 0.0268,-0.13391 0.005,-0.22591 -0.0695,-0.2874 -0.0599,-0.0497 -0.10894,-0.15633 -0.10894,-0.23675 0,-0.0805 -0.0621,-0.36258 -0.13786,-0.62687 -0.0758,-0.26428 -0.14992,-0.61959 -0.16468,-0.78957 -0.0147,-0.16999 -0.0442,-0.35542 -0.0655,-0.41207 -0.0213,-0.0566 -0.0542,-0.36574 -0.0733,-0.68681 -0.0192,-0.32106 -0.0669,-0.69194 -0.10639,-0.82413 -0.0513,-0.17203 -0.0496,-0.29419 0.006,-0.42932 0.0509,-0.12371 0.0547,-0.21853 0.011,-0.27472 -0.14047,-0.18057 -0.25039,-0.93958 -0.1604,-1.10773 0.0686,-0.1284 0.0642,-0.20548 -0.0238,-0.41628 -0.0594,-0.14226 -0.0903,-0.32992 -0.0685,-0.41686 0.0218,-0.087 -0.009,-0.40048 -0.0694,-0.69676 -0.06,-0.29627 -0.12469,-0.83227 -0.14377,-1.19114 -0.0508,-0.95576 -0.095,-1.22999 -0.31783,-1.97224 -0.0405,-0.13493 -0.0419,-0.26863 -0.003,-0.3434 0.0683,-0.1333 0.0284,-0.63753 -0.0505,-0.63753 -0.16387,0 -0.63599,-0.47356 -0.70639,-0.70852 -0.12408,-0.41417 0.19972,-0.55908 0.41272,-0.18465 0.16417,0.28849 0.22967,0.2565 0.17483,-0.0854 -0.0257,-0.16061 -0.0493,-0.60329 -0.0523,-0.98391 -0.007,-0.76849 0.10338,-0.73757 -1.41844,-0.4006 -0.54003,0.11964 -1.43681,0.11087 -1.80793,-0.0183 -0.42507,-0.14716 -1.60807,-0.17121 -1.68471,-0.0343 -0.0527,0.0942 -0.0854,0.097 -0.22987,0.0204 -0.19424,-0.10395 -0.28905,-0.065 -0.97697,0.40137 -0.39631,0.26865 -0.98895,0.48524 -2.19772,0.80315 -1.36969,0.36024 -4.37842,-0.0938 -5.73763,-0.86558 -0.24715,-0.14042 -0.55247,-0.29112 -0.67848,-0.33507 -0.33483,-0.11679 -1.20173,-0.80368 -1.40851,-1.11615 -0.0981,-0.14817 -0.20417,-0.26959 -0.23567,-0.26959 -0.0724,0 -0.33221,-0.63512 -0.4915,-1.20186 -0.0319,-0.11332 -0.16546,-0.46892 -0.29688,-0.79023 -0.26086,-0.63773 -0.37693,-1.15059 -0.3525,-1.55752 0.009,-0.1441 0.0332,-0.71018 0.0546,-1.25789 0.0446,-1.14378 0.0931,-1.41298 0.34014,-1.88866 0.0981,-0.18893 0.23445,-0.48165 0.30301,-0.65065 0.14375,-0.35427 0.59516,-0.95195 0.76467,-1.01243 0.0635,-0.0226 0.30594,-0.22176 0.53876,-0.44243 0.23281,-0.22069 0.46807,-0.40125 0.52281,-0.40125 0.0548,0 0.21405,-0.0911 0.35402,-0.20218 0.13998,-0.11129 0.36058,-0.23726 0.4902,-0.28004 0.12962,-0.0428 0.23568,-0.10965 0.23568,-0.14859 0,-0.0389 -0.0504,-0.0514 -0.11185,-0.0277 -0.27816,0.10681 -0.71914,0.18997 -0.81403,0.15349 -0.23269,-0.0893 -0.068,-0.45642 0.20476,-0.45642 0.16833,0 0.30906,-0.12147 0.30906,-0.26684 0,-0.0561 0.0671,-0.17345 0.14933,-0.26099 0.0821,-0.0874 0.1143,-0.15897 0.0715,-0.15897 -0.14405,0 -2.17502,0.70215 -2.49015,0.8609 -0.39533,0.19914 -1.07251,0.3979 -1.1637,0.34155 -0.17803,-0.11007 -0.0243,-0.51566 0.19534,-0.51566 0.0551,0 0.47382,-0.18282 0.9306,-0.40618 0.47598,-0.23278 0.97221,-0.42551 1.16245,-0.45147 0.18258,-0.0249 0.45614,-0.0891 0.60793,-0.14267 0.15178,-0.0536 0.58961,-0.13044 0.97294,-0.17059 1.77916,-0.1871 2.87235,-0.33368 3.10073,-0.41593 0.11332,-0.0408 0.77778,-0.13247 1.47659,-0.20361 1.11033,-0.11311 1.53507,-0.16141 2.67847,-0.30468 0.13219,-0.0163 0.62669,-0.0613 1.09886,-0.0992 0.47217,-0.0381 0.98211,-0.0991 1.1332,-0.13554 0.80521,-0.19424 1.4017,-0.10272 1.12093,0.17202 -0.0906,0.0887 -1.28798,0.25728 -2.3849,0.33593 -1.15651,0.0829 -0.82992,0.23746 0.40548,0.19199 0.54515,-0.0204 0.97129,-0.001 1.16754,0.0499 0.16998,0.0448 0.49449,0.0744 0.72113,0.0657 0.22664,-0.008 0.47388,-0.0122 0.54943,-0.008 0.28262,0.0183 0.6218,0.006 0.73105,-0.0279 0.12629,-0.0385 0.35572,0.15327 0.29695,0.24835 -0.0208,0.0336 0.006,0.14695 0.0586,0.25202 0.10456,0.20703 0.0864,0.33062 -0.0761,0.51709 -0.0576,0.066 -0.0767,0.12351 -0.0426,0.12779 0.0341,0.004 0.18578,0.0183 0.33687,0.0296 2.20338,0.17752 4.585747,1.69692 5.456866,3.48041 0.533073,1.09142 0.640463,1.14621 1.376661,0.70256 0.283299,-0.17079 0.592355,-0.32919 0.68679,-0.35212 0.09443,-0.023 0.295313,-0.0944 0.44641,-0.15878 0.670638,-0.28599 1.064482,-0.4086 1.538204,-0.47887 0.279405,-0.0414 0.535516,-0.0923 0.56913,-0.11312 0.318959,-0.19709 2.819319,-0.3956 3.224609,-0.25597 1.08994,0.37551 1.630874,0.9543 2.760535,2.95375 0.656452,1.16189 0.945593,2.38234 0.581145,2.45307 -0.0866,0.0163 -0.559235,0.0976 -1.05029,0.17955 -0.491055,0.0819 -0.929189,0.16 -0.973625,0.17345 -0.07698,0.0232 0.06644,0.50681 0.249352,0.84077 0.255605,0.46668 0.718238,1.77106 0.69357,1.95553 -0.0016,0.0102 0.07325,0.23408 0.16564,0.49849 0.168004,0.48077 0.168004,0.48077 1.312872,0.46493 0.629684,-0.008 1.241448,-0.0466 1.359473,-0.0846 0.118028,-0.0379 0.390269,-0.11598 0.604984,-0.17366 0.444137,-0.11943 0.481174,-0.20075 0.37574,-0.82486 -0.09805,-0.58017 -0.403905,-1.77786 -0.491104,-1.92298 -0.04543,-0.0754 -0.122329,-0.26096 -0.170938,-0.41207 -0.139022,-0.4321 -0.341673,-0.80555 -0.564386,-1.04008 -0.256329,-0.26993 -0.23579,-0.46309 0.05224,-0.49136 0.453671,-0.0446 1.448882,2.18389 1.65778,3.712 0.04249,0.31098 0.149783,0.32679 0.352906,0.052 0.08354,-0.11291 0.267067,-0.26447 0.407812,-0.33656 0.38859,-0.19891 1.273361,-0.92164 1.384531,-1.13079 0.09969,-0.18751 0.348542,-0.30036 0.481419,-0.21825 0.169451,0.10477 0.06659,0.43898 -0.267402,0.86931 -0.186999,0.24089 -0.40568,0.52299 -0.485976,0.62687 -0.0803,0.10394 -0.185715,0.18893 -0.234266,0.18893 -0.08542,0 -1.137497,0.66454 -1.137497,0.71849 0,0.0143 0.193154,0.0261 0.429245,0.0252 0.236081,-7e-4 0.568318,0.0501 0.738298,0.11311 0.169981,0.063 0.446263,0.15898 0.613964,0.21331 0.167697,0.0542 0.368585,0.13982 0.446409,0.19037 0.519656,0.33639 2.058079,0.40803 2.455331,0.11433 0.381371,-0.28195 1.112596,-0.0811 0.755992,0.20765 -0.69594,0.56354 -2.239173,0.5592 -3.619251,-0.0102 -1.028178,-0.4242 -1.361394,-0.45979 -1.923005,-0.20534 -0.30843,0.13981 -0.623252,0.20116 -2.160355,0.42191 -0.709494,0.10191 -1.741263,0.33409 -1.815892,0.40871 -0.04567,0.0457 0.0049,0.24918 0.152413,0.60918 0.121554,0.29732 0.269461,0.72233 0.328667,0.94449 0.177788,0.66706 0.439491,1.63548 0.46179,1.70881 0.01161,0.0377 0.04551,0.17691 0.07559,0.30904 0.03008,0.13228 0.0782,0.2713 0.10688,0.30907 0.02863,0.0379 0.06854,0.16142 0.08854,0.27473 0.01998,0.11332 0.137186,0.49296 0.260357,0.84368 0.241736,0.68832 0.223024,0.8251 -0.101744,0.74357 -0.120148,-0.0301 -0.187427,-0.10353 -0.212849,-0.2319 -0.04211,-0.21253 -0.283835,-1.02738 -0.412339,-1.3897 -0.04688,-0.13228 -0.247107,-0.75032 -0.444911,-1.37358 -0.1978,-0.62325 -0.447153,-1.38043 -0.55409,-1.68263 -0.481435,-1.36044 -0.888655,-2.56977 -0.888655,-2.63905 0,-0.0416 -0.02717,-0.12922 -0.06035,-0.19485 -0.06757,-0.13349 -0.315057,-0.85012 -0.456313,-1.32112 -0.40332,-1.34476 -0.561684,-1.6014 -0.95204,-1.54286 -0.161279,0.0243 -0.584445,0.0644 -0.940386,0.0895 -0.647147,0.0455 -0.647147,0.0455 -0.696839,0.52623 -0.148988,1.44112 -0.07211,3.00277 0.190138,3.8625 0.09583,0.3142 0.159097,0.59579 0.14059,0.62575 -0.01855,0.03 -0.0041,0.25313 0.03204,0.49591 0.03618,0.24281 0.08387,0.71961 0.106025,1.05957 0.02215,0.33996 0.04227,0.63355 0.0447,0.65245 0.0024,0.0183 -0.01834,0.086 -0.04608,0.14919 -0.02782,0.0632 -0.01998,0.17222 0.01753,0.24215 0.04437,0.083 0.04486,0.16896 0.0016,0.2467 -0.04761,0.0852 -0.03797,0.14817 0.03367,0.21987 0.05523,0.0552 0.136332,0.32527 0.180152,0.6 0.08342,0.52312 0.267718,1.21053 0.489067,1.82411 0.07203,0.19974 0.131011,0.41089 0.131011,0.46924 0,0.0968 0.215885,0.63459 0.554758,1.38175 0.0726,0.1602 0.13203,0.31606 0.13203,0.34651 0,0.0911 0.736953,1.50626 0.89754,1.72347 0.266427,0.36037 -0.0374,0.48875 -0.411521,0.17385 -0.116215,-0.0978 -0.2113,-0.21139 -0.2113,-0.25244 0,-0.041 -0.105616,-0.29325 -0.23472,-0.56049 -0.350617,-0.7258 -0.546164,-1.16445 -0.553385,-1.24133 -0.0033,-0.0379 -0.12127,-0.30937 -0.261616,-0.60357 -0.140346,-0.29419 -0.255177,-0.57651 -0.255177,-0.62742 0,-0.0508 -0.04404,-0.17732 -0.09781,-0.28106 -0.05378,-0.10374 -0.118925,-0.34675 -0.144748,-0.54013 -0.0258,-0.19342 -0.09543,-0.40641 -0.154674,-0.4734 -0.07543,-0.0854 -0.08607,-0.14348 -0.03536,-0.19423 0.05069,-0.0508 0.027,-0.11781 -0.07908,-0.22385 -0.116338,-0.11638 -0.171572,-0.29851 -0.238102,-0.78537 -0.07519,-0.55048 -0.116377,-0.6695 -0.312697,-0.90448 -0.124347,-0.14878 -0.283827,-0.41026 -0.354406,-0.58095 -0.134089,-0.32422 -0.43648,-0.49329 -1.124186,-0.6285 -0.132194,-0.0259 -0.564879,-0.15224 -0.961499,-0.28047 -1.411015,-0.45637 -1.551865,-0.49398 -2.124969,-0.56761 -0.657718,-0.0846 -0.826555,-2e-5 -1.072913,0.53686 -0.155898,0.33978 -0.251511,0.52545 -0.509777,0.99008 -0.121963,0.21945 -0.204569,0.41619 -0.183556,0.4372 0.02101,0.021 -0.04511,0.19689 -0.146949,0.39084 -0.123613,0.23538 -0.188752,0.47117 -0.195926,0.70924 -0.0057,0.19607 -0.04347,0.45886 -0.0834,0.58378 -0.03999,0.12494 -0.06612,0.28892 -0.05817,0.36446 0.01712,0.16224 -0.179886,0.2119 -0.443592,0.11169 -0.194479,-0.074 -0.212925,-1.0156 -0.02433,-1.24481 0.04665,-0.0566 0.120393,-0.28847 0.163927,-0.51511 0.04355,-0.22664 0.125326,-0.44639 0.1817,-0.48831 0.05637,-0.042 0.102518,-0.13942 0.102518,-0.21664 0,-0.0772 0.07957,-0.36739 0.176789,-0.64487 0.09722,-0.27747 0.192848,-0.55596 0.212516,-0.61886 0.09842,-0.31489 -0.593155,-0.43679 -2.08209,-0.367 -1.19594,0.0561 -1.18518,0.0485 -0.94288,0.65414 0.0936,0.23385 0.099,0.34183 0.034,0.6724 -0.0613,0.31163 -0.0577,0.47236 0.0175,0.77015 0.0522,0.20699 0.11729,0.6545 0.14468,0.99448 0.0274,0.33996 0.0633,0.72626 0.0797,0.85846 0.0433,0.34807 0.0971,1.41929 0.0917,1.82419 -0.002,0.19118 0.0294,0.43718 0.071,0.54667 0.0416,0.10945 0.0904,0.47303 0.10839,0.80792 0.0179,0.33486 0.0799,0.81515 0.13758,1.06727 0.0577,0.25216 0.10168,0.57678 0.0978,0.7214 -0.007,0.23241 0.15942,0.89901 0.35588,1.43177 0.0373,0.1011 0.0486,0.24424 0.0251,0.3181 -0.0284,0.0895 -0.005,0.14878 0.0703,0.17752 0.071,0.0273 0.0999,0.0927 0.078,0.17671 -0.0192,0.0734 0.006,0.18893 0.05556,0.2567 0.05102,0.0695 0.07407,0.20575 0.05281,0.31224 -0.02279,0.11434 -0.0082,0.18893 0.03789,0.18893 0.09422,0 0.285061,0.3599 0.285061,0.5376 0,0.0728 0.04266,0.16774 0.09475,0.21099 0.05207,0.0432 0.113035,0.17018 0.135393,0.28193 0.09473,0.47371 0.924315,1.52476 1.443696,1.82918 0.405048,0.23738 0.405048,0.23738 0.5657,0.0864 0.09149,-0.086 0.256198,-0.15388 0.382544,-0.15775 0.175993,-0.006 0.230088,-0.0416 0.261528,-0.17467 0.02725,-0.11536 0.10686,-0.18527 0.254139,-0.22348 0.156733,-0.0406 0.206499,-0.0879 0.184778,-0.17549 -0.01773,-0.0713 0.06846,-0.22581 0.212533,-0.38128 0.133233,-0.14369 0.242264,-0.28041 0.242264,-0.30364 0,-0.0232 0.05322,-0.1011 0.118252,-0.17304 0.06506,-0.0719 0.08823,-0.12066 0.05151,-0.10843 -0.03675,0.0122 -0.06675,-0.008 -0.06675,-0.0465 0,-0.0377 0.02018,-0.0619 0.04462,-0.0538 0.02458,0.008 0.03585,-0.1816 0.02515,-0.42173 -0.01956,-0.43663 -0.01956,-0.43663 0.239814,-0.47808 0.294857,-0.0471 0.573234,-0.32168 0.815926,-0.80464 0.0835,-0.16611 0.177725,-0.34846 0.209394,-0.40512 0.03163,-0.0566 0.130583,-0.26408 0.219828,-0.46092 0.08923,-0.19689 0.204737,-0.35908 0.256677,-0.36055 0.06806,-0.001 0.08291,-0.0603 0.05322,-0.2087 -0.02262,-0.11333 -0.01875,-0.20863 0.0086,-0.21177 0.02741,-0.004 0.125487,-0.0143 0.217999,-0.0238 0.09251,-0.0102 0.18009,-0.0538 0.194601,-0.0972 0.04291,-0.12881 0.185776,-0.0911 0.360425,0.0948 0.163398,0.17385 0.163398,0.17385 -0.01712,0.34125 -0.09926,0.0921 -0.20037,0.23008 -0.22472,0.30678 -0.02433,0.0766 -0.150353,0.29712 -0.280021,0.4898 -0.129668,0.19261 -0.235767,0.38981 -0.235767,0.43804 0,0.0483 -0.04671,0.12657 -0.103802,0.17385 -0.325068,0.26979 -0.516267,1.15841 -0.306596,1.42496 0.142059,0.18058 0.142059,0.18058 -0.273191,0.36909 -0.352923,0.16019 -0.415253,0.21527 -0.415253,0.36688 0,0.10598 -0.07138,0.2401 -0.175789,0.33044 -0.09669,0.0836 -0.309031,0.28344 -0.471872,0.44398 -0.162847,0.16061 -0.317353,0.29188 -0.343343,0.29188 -0.02595,0 -0.186959,0.13085 -0.357708,0.29099 -0.170755,0.15999 -0.346643,0.29441 -0.390868,0.29858 -0.217634,0.0206 -0.252109,0.0332 -0.252109,0.0927 0,0.0352 0.122961,0.15123 0.273249,0.25756 0.33794,0.23907 0.337972,0.2436 0.0024,0.34828 -0.34855,0.10883 -0.409071,0.1072 -0.454585,-0.0122 z m 5.086381,-16.18011 c -0.06448,-0.32107 -0.163641,-0.65822 -0.220394,-0.74922 -0.06522,-0.10456 -0.139999,-0.55957 -0.203181,-1.23622 -0.180804,-1.93627 -0.18274,-2.04896 -0.04584,-2.67995 0.07026,-0.32369 0.127995,-0.6135 0.128322,-0.64401 3.32e-4,-0.0305 -0.524792,-0.0681 -1.166937,-0.0834 -2.384016,-0.0568 -2.60178,-0.0831 -3.2811,-0.39701 -0.649655,-0.30015 -0.61212,-0.32377 -0.796442,0.50141 -0.08038,0.36001 -0.211852,0.53183 -0.609778,0.79713 -0.198311,0.13228 -0.365397,0.27736 -0.37131,0.32256 -0.0481,0.36756 -0.02961,0.51742 0.08352,0.67778 0.07121,0.10088 0.126385,0.28638 0.122594,0.41207 -0.0041,0.12575 0.04307,0.39851 0.104189,0.60628 0.06108,0.20776 0.142751,0.6857 0.181477,1.0621 0.0836,0.81257 0.08422,0.81341 0.608722,0.80597 0.401827,-0.006 0.668944,0.11596 0.493165,0.22458 -0.164091,0.1015 -0.04486,0.15857 0.425909,0.20436 0.745901,0.0724 1.115021,0.16448 1.8715,0.46658 0.417707,0.16692 0.877395,0.29623 1.173285,0.33035 0.671207,0.0773 1.266967,0.29653 1.436499,0.52849 0.19446,0.26608 0.228945,-0.33715 0.06571,-1.15 z m -6.075134,-0.0628 c 0,-0.0318 -0.0887,-0.0948 -0.19713,-0.13961 -0.272916,-0.11312 -0.358105,-0.34105 -0.424791,-1.1369 -0.05913,-0.7054 -0.184696,-1.2309 -0.357789,-1.49707 -0.05411,-0.0832 -0.138043,-0.27483 -0.186592,-0.42593 -0.222162,-0.69138 -0.197658,-0.68305 -0.910504,-0.3099 -0.34979,0.18302 -0.75962,0.36598 -0.91072,0.4064 -0.70558,0.18873 -0.74156,0.25491 -0.68777,1.26347 0.0944,1.77014 0.0848,1.75636 1.23721,1.76987 0.827289,0.0102 1.933226,0.1172 2.09292,0.20341 0.106574,0.0575 0.345168,-0.035 0.345168,-0.1339 z m -12.512576,-1.61728 c 0.17716,-0.0568 0.41075,-0.12065 0.51908,-0.14205 0.34837,-0.0687 0.14968,-0.10517 -0.72024,-0.13207 -0.48184,-0.0143 -1.01399,-0.0728 -1.22804,-0.1335 -0.20775,-0.0589 -0.6148,-0.16978 -0.90454,-0.24607 -0.50423,-0.13289 -1.39496,-0.51604 -1.6054,-0.69069 -0.3231,-0.26816 0.10745,-0.53591 0.45205,-0.28112 0.2666,0.19709 0.76909,0.38843 1.26809,0.48282 0.22663,0.0428 0.62841,0.12147 0.89282,0.17487 1.78685,0.36019 4.08638,0.10843 4.08638,-0.44752 0,-0.035 0.0713,-0.0638 0.15835,-0.0638 0.0871,0 0.26308,-0.0772 0.39108,-0.17161 0.12799,-0.0944 0.25959,-0.17161 0.29241,-0.17161 0.0329,0 0.37675,-0.13533 0.76424,-0.30095 0.3875,-0.1655 0.84138,-0.32378 1.00865,-0.35168 0.16727,-0.0279 0.47409,-0.13737 0.68185,-0.24335 0.20774,-0.10599 0.69895,-0.25805 1.09156,-0.33799 0.95515,-0.19444 1.06966,-0.26938 1.37793,-0.90142 0.19479,-0.39935 0.48899,-0.59665 0.64986,-0.43578 0.35034,0.35036 -0.48738,1.50413 -1.24503,1.71476 -0.21875,0.061 -0.5059,0.15062 -0.63811,0.19954 -0.13221,0.0489 -0.364,0.11149 -0.51509,0.13879 -0.15109,0.0275 -0.46015,0.15042 -0.68679,0.27324 -0.22664,0.1229 -0.54341,0.26404 -0.70395,0.31375 -0.16055,0.0497 -0.29189,0.11393 -0.29189,0.14267 0,0.20238 1.4982,0.12962 1.68971,-0.0821 0.0645,-0.0711 0.19742,-0.13003 0.29545,-0.13064 0.47244,-0.004 1.3801,-0.32453 1.3801,-0.48873 0,-0.15877 0.30168,-0.67692 0.41497,-0.71288 0.28967,-0.0919 0.60544,0.21161 0.55466,0.53318 -0.0141,0.0889 0.22261,0.0564 0.62781,-0.0858 0.21495,-0.0754 0.47038,-0.13736 0.567633,-0.13736 0.4199,0 0.598338,-0.18161 0.546798,-0.55621 -0.07853,-0.5708 0.224385,-0.73575 0.555024,-0.30228 0.100826,0.13228 0.21942,0.24038 0.263507,0.24038 0.112607,0 0.521637,-0.5483 0.521637,-0.69926 0,-0.0687 0.02684,-0.12494 0.05962,-0.12494 0.134354,0 0.0814,-0.73083 -0.06239,-0.86095 -0.07641,-0.0693 -0.230711,-0.28611 -0.342829,-0.48208 -0.322585,-0.56381 -0.287462,-1.00049 0.163478,-2.03258 0.103334,-0.23653 0.101948,-0.26041 -0.02482,-0.42159 -0.0739,-0.094 -0.245257,-0.38292 -0.380756,-0.64209 -0.135495,-0.25919 -0.335351,-0.54849 -0.444144,-0.64293 -0.108775,-0.0944 -0.217986,-0.2563 -0.242662,-0.35969 -0.07195,-0.3014 -1.307466,-1.51262 -1.793016,-1.75771 -0.95521,-0.48221 -4.20446,-0.99338 -4.72825,-0.74387 -0.11294,0.0538 -0.7307,0.15021 -1.37285,0.21438 -0.69788,0.0697 -1.25219,0.15938 -1.37799,0.22295 -0.16878,0.0854 -0.34555,0.0974 -0.89282,0.0608 -0.3753,-0.0251 -1.00688,-0.0539 -1.40349,-0.064 -0.42822,-0.0102 -0.93036,-0.0722 -1.23623,-0.15063 -0.90061,-0.23121 -1.78743,-0.0492 -3.78535,0.77712 -1.36217,0.56335 -2.65973,1.7892 -3.03598,2.86822 -0.31111,0.89221 -0.18598,3.58631 0.19923,4.28948 0.0517,0.0944 0.20557,0.46529 0.34185,0.82414 0.15078,0.39705 0.33522,0.74655 0.47114,0.89283 0.12284,0.13227 0.28819,0.32687 0.36744,0.43259 0.16452,0.21945 0.49489,0.45602 0.9804,0.70203 0.1846,0.0935 0.36872,0.23193 0.40918,0.30755 0.0521,0.0972 0.14379,0.13737 0.31369,0.13737 0.13207,0 0.41685,0.0577 0.63286,0.1284 1.47599,0.48218 3.86548,0.71643 4.6721,0.45799 z m 7.70026,-3.84702 c -0.0971,-0.0528 -0.23312,-0.22153 -0.30231,-0.37498 -0.14049,-0.31153 -0.47367,-0.39434 -0.66315,-0.16489 -0.29182,0.35352 -1.19989,0.4586 -1.62235,0.18772 -0.31025,-0.19892 -0.12808,-0.50415 0.22153,-0.37125 0.12068,0.0459 0.24295,0.0332 0.42866,-0.0444 0.14289,-0.0597 0.33602,-0.13758 0.42917,-0.17304 0.32633,-0.12412 -0.009,-0.19383 -0.89283,-0.18547 -1.08747,0.0102 -1.56846,-0.0909 -1.89382,-0.39768 -0.29252,-0.27588 -0.1586,-0.28787 -0.9449,0.0846 -0.36616,0.17345 -0.97612,0.38914 -1.3656,0.48291 -0.38713,0.0932 -0.81204,0.21277 -0.94425,0.26572 -0.13219,0.053 -0.35322,0.11454 -0.49115,0.13696 -0.13794,0.0224 -0.38742,0.11352 -0.55441,0.20219 -0.41602,0.22119 -1.13688,0.33624 -1.83895,0.29351 -2.13351,-0.12984 -2.66589,-0.17569 -2.83746,-0.24415 -0.10633,-0.0424 -0.282,-0.0771 -0.39038,-0.0771 -0.10836,0 -0.39223,-0.0831 -0.6308,-0.18485 -1.1421,-0.48677 -1.56251,-1.1373 -1.43571,-2.22158 0.044,-0.37699 0.099,-0.46887 0.80347,-1.34474 0.0419,-0.0522 0.10542,-0.0948 0.14106,-0.0948 0.0356,0 0.17131,-0.11046 0.30149,-0.24536 0.13018,-0.13493 0.49937,-0.38705 0.82045,-0.56019 0.32106,-0.17303 0.63012,-0.35363 0.68678,-0.4011 0.10333,-0.0866 0.25434,-0.14308 1.71697,-0.64185 2.04396,-0.69708 4.85662,-0.54555 6.37638,0.34355 0.22962,0.13431 0.22962,0.13431 0.45261,-0.0613 0.41607,-0.36532 1.65213,-0.90626 2.06978,-0.90581 1.24967,10e-4 2.70472,0.62406 3.61036,1.54505 0.75128,0.76404 0.31893,2.21614 -1.08926,3.6585 -0.37059,0.37959 -0.37059,0.37959 -0.11228,0.64411 0.14206,0.14553 0.22885,0.26498 0.19287,0.26555 -0.036,5.7e-4 0.0557,0.10354 0.20386,0.22886 0.43535,0.36832 0.0876,0.64552 -0.44582,0.35542 z m -9.66307,-0.6838 c 0.21589,-0.0306 0.76295,-0.21694 1.01437,-0.34577 0.0944,-0.0485 0.32622,-0.11026 0.51509,-0.13757 0.52535,-0.076 1.36268,-0.29628 1.73021,-0.4553 0.18158,-0.0785 0.58511,-0.23569 0.89675,-0.34914 0.59968,-0.21832 0.66231,-0.29819 0.48854,-0.6229 -0.0429,-0.0803 -0.10721,-0.36407 -0.14284,-0.63076 -0.0356,-0.26669 -0.0809,-0.59915 -0.1005,-0.73879 -0.0226,-0.16101 0.005,-0.33526 0.0754,-0.47669 0.2854,-0.57211 0.24512,-0.6965 -0.31373,-0.96887 -0.71359,-0.34779 -1.8329,-0.62708 -2.53086,-0.6315 -0.52828,-0.004 -2.17708,0.18588 -2.38838,0.27415 -0.12373,0.0517 -0.4328,0.14553 -0.68679,0.20869 -0.40822,0.1015 -0.82102,0.27384 -1.93558,0.80839 -1.40459,0.67366 -2.34367,1.76634 -2.13072,2.47925 0.3222,1.07864 0.87885,1.40014 2.67735,1.54627 1.58221,0.12861 2.15064,0.13676 2.83165,0.0406 z m -1.95163,-1.99689 c -0.0931,-0.2043 0.0789,-0.43233 0.46369,-0.61495 0.12549,-0.0595 0.42656,-0.27763 0.66902,-0.48463 0.48167,-0.41117 0.5728,-0.43928 0.80766,-0.2491 0.1817,0.14715 0.25151,0.0659 -0.72569,0.84544 -0.93051,0.74241 -1.07789,0.80346 -1.21468,0.50324 z m 11.38609,0.63817 c 0.77969,-0.82091 0.95336,-1.10187 0.96141,-1.55537 0.004,-0.21286 0.0287,-0.55701 0.0555,-0.76475 0.18229,-1.41506 -3.3984,-2.4681 -4.42349,-1.3009 -0.0566,0.0644 -0.17255,0.15286 -0.25754,0.19647 -0.22245,0.11394 -0.19134,0.23771 0.10981,0.43702 0.50301,0.33287 0.86691,1.11412 0.73159,1.57067 -0.0826,0.27873 -0.59241,1.08346 -0.79363,1.25279 -0.49237,0.41429 0.14456,0.6063 2.13912,0.64487 1.00218,0.0203 1.00218,0.0203 1.47721,-0.48076 z m -2.12167,-0.88497 c -0.1817,-0.10578 0.008,-1.5486 0.2406,-1.83004 0.25128,-0.30405 0.6135,-0.0143 0.52295,0.4191 -0.0328,0.15673 -0.091,0.51665 -0.1295,0.79995 -0.0868,0.63901 -0.27468,0.82012 -0.63404,0.61099 z m -1.67219,0.11515 c 0.4029,-0.61488 0.3563,-1.40162 -0.10606,-1.79066 -0.49113,-0.41327 -0.71483,0.70603 -0.3231,1.61663 0.16315,0.37924 0.2671,0.4214 0.42917,0.17405 z m 12.819555,2.43549 c -0.05588,-0.0355 -0.225869,-0.0838 -0.377729,-0.10741 -0.755892,-0.11842 -1.615354,-0.49956 -1.615354,-0.71651 0,-0.25318 0.317961,-0.29614 0.706215,-0.0954 0.244698,0.12656 0.974893,0.35228 1.39034,0.4299 0.278263,0.052 0.398324,0.032 0.881274,-0.14654 0.307513,-0.11353 0.790911,-0.28436 1.074209,-0.3794 1.357699,-0.45553 1.67797,-0.61839 2.303624,-1.17158 0.364594,-0.32234 0.366378,-0.39152 0.01691,-0.65248 -0.175178,-0.13085 -0.176625,-0.13065 -0.509785,0.0652 -0.286795,0.16855 -0.411918,0.1977 -0.883538,0.2052 -0.849986,0.0143 -1.121769,0.12331 -1.544564,0.62325 -0.520299,0.61525 -0.92408,0.7683 -1.390598,0.52707 -0.158609,-0.0821 -0.316792,-0.1009 -0.598989,-0.0713 -0.251592,0.0263 -0.477444,0.006 -0.65672,-0.0573 -0.150293,-0.0536 -0.405582,-0.0986 -0.567337,-0.10027 -0.933019,-0.0102 -1.450462,-0.75726 -1.081623,-1.56291 0.226061,-0.49378 0.176359,-0.53025 -0.208399,-0.15286 -0.256116,0.25126 -0.302905,0.33492 -0.266419,0.47647 0.09376,0.36369 0.116194,0.60975 0.124734,1.36813 0.01162,1.03097 0.23652,1.20674 1.897495,1.48297 0.635173,0.10557 1.45218,0.12799 1.306301,0.0357 z m 1.768487,-0.008 c 0.21113,-0.0736 0.324448,-0.22804 0.252612,-0.34428 -0.0211,-0.0341 -0.160238,2.5e-4 -0.309297,0.0762 -0.14905,0.076 -0.402467,0.15367 -0.56316,0.17263 -0.657296,0.0772 -0.729133,0.15673 -0.147277,0.16305 0.305997,0.004 0.651205,-0.0271 0.767127,-0.0677 z m 1.2374,-0.25275 c -0.01977,-0.18893 -0.01977,-0.18893 0.805318,-0.19627 0.963502,-0.008 1.726502,-0.29359 2.260353,-0.84395 0.269615,-0.27794 0.269615,-0.27794 0.09773,-0.67477 -0.450951,-1.04098 -1.864479,-2.80176 -2.519927,-3.13898 -0.243098,-0.12514 -0.409475,-0.0779 -0.192074,0.0546 0.592524,0.36075 0.728541,0.4831 0.868775,0.78142 0.146706,0.31213 0.161523,0.68631 0.03885,0.98309 -0.03172,0.0768 0.05362,0.1706 0.300633,0.33059 0.525854,0.34074 0.581752,0.45218 0.395744,0.7889 -0.339335,0.61431 -1.017429,1.07647 -2.109541,1.43784 -0.428507,0.14185 -0.509266,0.66648 -0.10258,0.66648 0.151495,0 0.173649,-0.0267 0.156692,-0.18893 z m -6.784622,-1.73413 c 0,-0.68213 -0.07017,-0.77747 -0.228992,-0.31127 -0.08071,0.23701 -0.08837,0.36598 -0.03342,0.56661 0.159833,0.58387 0.262438,0.48404 0.262438,-0.25534 z m 4.520497,-0.10964 c 0.463053,-0.23075 0.518951,-0.33922 0.381994,-0.74114 -0.142242,-0.41747 -0.142609,-0.41762 -1.056477,-0.42424 -0.708683,-0.004 -0.828608,-0.0245 -1.167544,-0.18873 -0.498023,-0.24134 -0.525522,-0.2374 -0.953095,0.13655 -0.682208,0.59679 -0.425117,1.17886 0.531467,1.20334 1.192073,0.0306 1.357875,0.0422 1.554827,0.10987 0.298118,0.10252 0.315672,0.10007 0.708828,-0.0958 z m -1.571942,-0.12149 c -0.387695,-0.19668 -0.346165,-0.67849 0.0619,-0.71787 0.26994,-0.0261 0.395728,0.0632 0.443871,0.31512 0.06732,0.35231 -0.194336,0.56072 -0.50573,0.40275 z m 3.876172,-0.96999 c 0.413557,0.17284 1.007694,-0.31067 0.901035,-0.7332 -0.173773,-0.68836 -1.662826,-0.88259 -2.557687,-0.33364 -0.284736,0.17467 -0.281596,0.31308 0.01712,0.75705 0.132214,0.19648 0.240375,0.39849 0.240375,0.44896 0,0.1714 0.427239,0.14471 0.807149,-0.0503 0.336285,-0.17284 0.376406,-0.17875 0.591957,-0.0887 z m -0.91712,-0.23988 c -0.221749,-0.22174 0.05102,-0.75668 0.38583,-0.75668 0.306693,0 0.268067,0.6573 -0.04859,0.82675 -0.166698,0.0893 -0.180924,0.0862 -0.337256,-0.0701 z m -1.540558,-0.5482 c 0.06555,-0.32131 0.235894,-0.58495 0.489765,-0.75792 0.251989,-0.17162 0.251989,-0.17162 -4.9e-5,-0.19301 -0.411131,-0.0347 -2.590368,0.52425 -2.590368,0.66431 0,0.10679 0.896216,0.38816 1.339234,0.42059 0.73581,0.0538 0.722621,0.0561 0.761418,-0.13412 z m -11.412229,-4.78296 c 0.3004,-0.11536 0.0997,-0.23294 -0.38928,-0.2282 -0.56086,0.006 -0.84937,0.0752 -0.64124,0.15511 0.0667,0.0257 0.14924,0.0294 0.18331,0.008 0.0341,-0.0212 0.11628,-0.006 0.18266,0.032 0.13499,0.0787 0.49843,0.0966 0.66455,0.0328 z m 10.678456,29.3193 c -0.09811,-0.0143 -0.299003,-0.15184 -0.446417,-0.30358 -0.396075,-0.4079 -0.121352,-0.59335 0.830845,-0.56086 0.07551,0.002 0.384605,-0.0536 0.68679,-0.12453 0.302183,-0.0711 0.651901,-0.12943 0.777153,-0.12983 0.125243,-2.7e-4 0.291402,-0.0346 0.36925,-0.0762 0.425051,-0.22749 0.60595,0.23952 0.227168,0.58645 -0.132193,0.12106 -0.240375,0.26961 -0.240375,0.33002 0,0.0858 -0.101927,0.11903 -0.46358,0.15164 -0.254965,0.023 -0.63099,0.0717 -0.835598,0.10843 -0.3714,0.0664 -0.568521,0.0705 -0.905236,0.0183 z m -1.595992,-2.56922 c -0.105291,-0.14654 -0.172244,-0.29735 -0.148805,-0.33527 0.02344,-0.0379 0.0088,-0.0689 -0.03237,-0.0689 -0.0413,0 -0.32896,-0.25499 -0.639335,-0.5666 -0.598398,-0.60084 -1.146608,-1.0817 -1.233198,-1.0817 -0.02872,0 -0.05224,-0.064 -0.05224,-0.14206 0,-0.2286 0.5748,0.0508 0.84521,0.41069 0.0451,0.0599 0.198352,0.19606 0.340607,0.30227 0.142263,0.10619 0.414279,0.38438 0.604481,0.61807 0.1902,0.23369 0.421498,0.51043 0.513987,0.61494 0.09249,0.10456 0.168146,0.24803 0.168146,0.31889 0,0.23341 -0.171856,0.20035 -0.366475,-0.0703 z"
       id="path1-2"
       sodipodi:nodetypes="sssccssssscccssssscssccsccsssssssssssssscsssssssscssscsscsscscssscssssscscsssscsscsssssccsssssssssscscssssssssscccsssscsccssscccssccsssssssssssssssssssssssscssssssssssssscsssssssssssscssscsscscccscscssscsscssssssssssssssssscsssssssccsssssscsssccssssssscscscsssscscssscscsssccscccsssssscsccsscssscscssscsssssssssssccssscsccscscssssssssssscscscssccsssssssscsssscsssscssscsssccsscssssssscssscsscscsssssssssscsssscsscssccsssssccccssssssssscsccsssccssccssssssscccsssssssscscscccssssssscssssssscsscsscsssssscsssccssssscsccsscsssssccsccccsssccsscsssssssssssssccsssssssssscssssscsssscscssssssscscccssssccscsssccssssccsssssssccsssssssscscsssscscssssssssssssscccssssssccscssssssscssssssssssssscssssssccccscsccccssscsssssscccccccssccsscssscsscssssscccssccssssssccsscccssccscssccsssssssssssssss" />
    <path
       d="m 168.99461,141.94146 c -2.53581,-0.82824 -5.48023,-2.98794 -6.16981,-4.52564 -0.18375,-0.40925 -0.52839,-1.0147 -0.76617,-1.34509 -0.83329,-1.15793 -0.11165,-1.87029 1.76891,-1.74597 1.67576,0.11078 1.73186,0.15474 2.27277,1.78843 0.7448,2.24938 0.74946,2.25237 3.58415,2.30064 2.29664,0.0396 2.55033,-0.0396 3.42208,-1.03611 1.62877,-1.86558 1.68068,-1.95512 1.27744,-2.20433 -0.21583,-0.1332 -0.27914,-0.771 -0.14726,-1.47605 0.50883,-2.71223 -2.99655,-6.13954 -7.99218,-7.81428 -3.46287,-1.16088 -3.53659,-1.2098 -4.04045,-2.68317 -0.45823,-1.33992 0.98196,-4.95164 1.97446,-4.95164 0.2787,0 0.64045,-0.20924 0.80415,-0.46521 1.61883,-2.53042 10.44299,-2.54884 12.96478,-0.0264 1.68859,1.68855 -0.22947,2.63226 -2.51608,1.23801 -1.2851,-0.78347 -4.75439,-1.05607 -4.75439,-0.37365 0,0.20485 -0.34155,0.37234 -0.75917,0.37234 -1.10187,0 -3.44322,1.29828 -3.99882,2.21733 -0.52957,0.87602 -0.3209,1.50454 0.49982,1.50454 0.29496,0 0.53635,0.12793 0.53635,0.28397 0,0.15606 1.3087,0.28398 2.90827,0.28398 2.29967,0 3.1291,0.15474 3.96339,0.73948 0.58035,0.40662 1.49079,1.00402 2.02321,1.32734 1.81085,1.09972 3.74205,5.40506 3.49263,7.78632 -0.11781,1.12588 -0.19869,2.36373 -0.17891,2.75078 0.19782,3.93337 -5.77564,7.48996 -10.16921,6.05496 z m 71.418,-0.41499 c -0.79483,-0.55673 -1.08992,-2.02119 -1.42845,-7.08808 -0.0822,-1.22821 -0.20178,-2.56382 -0.26595,-2.96802 -0.0866,-0.54566 0.19473,-0.83799 1.093,-1.13542 0.6654,-0.22023 1.41072,-0.60145 1.6562,-0.84691 0.24528,-0.24529 0.75881,-0.44636 1.14073,-0.44636 0.382,0 1.02389,-0.17627 1.4266,-0.39168 0.97119,-0.51976 3.31293,0.29541 3.31293,1.15332 0,1.06226 1.31024,1.96553 2.17768,1.50133 3.42779,-1.8345 6.80068,0.63586 6.25945,4.58444 -0.11649,0.84902 -0.0663,1.77858 0.11123,2.06572 0.47062,0.7615 -1.33294,2.99699 -2.41793,2.99699 -1.19744,0 -5.27552,-1.99191 -6.15563,-3.00667 -0.79069,-0.9117 -0.9033,-4.34538 -0.16088,-4.9023 0.68194,-0.51142 -0.69833,-1.05955 -2.21207,-0.87844 -1.66587,0.19915 -2.95756,1.49369 -2.44543,2.45055 0.16836,0.31475 0.21936,1.34523 0.11297,2.28965 -0.12001,1.0628 -0.0352,1.81484 0.22156,1.97367 0.7018,0.43387 0.4904,2.37923 -0.30464,2.80484 -0.94679,0.50667 -1.201,0.48795 -2.12102,-0.15649 z m 12.51776,-5.04107 c 0,-1.07819 -1.09079,-2.60529 -1.86096,-2.60529 -0.69807,0 -0.57011,1.64698 0.22419,2.88442 0.78353,1.22079 1.63686,1.07528 1.63686,-0.27913 z m 6.88543,4.08585 c -1.30655,-0.49599 -2.58892,-2.19439 -2.61855,-3.46806 -0.0132,-0.6593 -0.16572,-1.42172 -0.33409,-1.69423 -0.16836,-0.27254 -0.15913,-0.60241 0.022,-0.73306 0.39431,-0.28661 0.39828,-1.93854 0.004,-2.573 -0.79412,-1.28492 5.43651,-1.87705 6.48299,-0.61614 0.26683,0.32135 0.78705,0.50514 1.15643,0.40839 1.08389,-0.28354 3.66051,1.80483 3.66051,2.9667 0,0.53749 0.35255,1.5478 0.78357,2.24512 0.83751,1.35513 0.47208,3.47232 -0.59934,3.47232 -0.55081,0 -3.13559,-2.76577 -3.21841,-3.44379 -0.0307,-0.2554 -0.0958,-0.63164 -0.14331,-0.83632 -0.0475,-0.20485 -0.10595,-0.54997 -0.12923,-0.76726 -0.12353,-1.13489 -1.4703,-1.91692 -2.89255,-1.67932 -1.25231,0.20924 -1.41632,0.35343 -1.3164,1.15665 0.0629,0.50478 0.11165,1.37288 0.10901,1.92914 -0.003,0.55625 0.15518,1.11044 0.35124,1.23156 1.25507,0.77566 0.0725,2.9292 -1.31855,2.40117 z m -38.80937,-0.60941 c -1.45804,-0.71864 -3.43374,-3.10157 -3.43374,-4.14151 0,-0.40926 -0.23429,-0.83403 -0.52117,-0.94401 -1.39346,-0.53472 -0.97303,-5.31566 0.62698,-7.1302 2.70357,-3.06601 10.40848,-0.30332 10.40848,3.73234 0,1.34958 -2.66241,2.40165 -6.07785,2.40165 -1.87019,0 -2.26324,0.79312 -1.04078,2.1001 2.09549,2.2405 4.33133,2.13606 5.267,-0.24617 0.63151,-1.60762 1.14214,-1.79775 2.42166,-0.90151 3.49412,2.44738 -3.53313,7.15859 -7.65058,5.12914 z m 2.55792,-9.6617 c 0.20441,-0.24617 0.23343,-0.53322 0.0646,-0.63758 -0.40442,-0.24969 -3.0788,0.59327 -3.0788,0.97061 0,0.45599 2.5975,0.16924 3.01418,-0.3332 z m 50.20843,9.17094 c -0.84493,-0.65345 -0.88305,-0.79653 -0.41453,-1.55658 0.36662,-0.59472 0.39344,-0.87781 0.0932,-0.97795 -0.23254,-0.0774 -0.42817,-0.50387 -0.43476,-0.94741 -0.009,-0.4435 -0.2576,-1.13151 -0.55828,-1.52885 -0.30068,-0.39739 -0.54645,-1.02956 -0.54645,-1.40494 0,-0.75828 -1.34735,-1.40835 -2.91901,-1.40835 -2.13057,0 -3.08561,-3.11194 -0.98895,-3.22246 0.6141,-0.0307 1.40967,-0.0742 1.7679,-0.0932 0.80731,-0.0439 0.86155,-1.25732 0.0849,-1.90188 -0.32794,-0.27255 -0.53323,-0.96289 -0.4875,-1.64148 0.0439,-0.64427 -0.0396,-1.36181 -0.18288,-1.59461 -0.55986,-0.90587 0.54884,-2.33994 1.80905,-2.33994 1.76082,0 1.94901,0.36617 2.64607,5.14923 0.17584,1.20513 0.45743,1.71475 1.11361,2.01371 0.48316,0.22023 0.87849,0.54088 0.87849,0.71271 0,0.17188 0.5657,0.31255 1.25709,0.31255 1.52383,0 2.42583,0.88436 1.83489,1.79906 -0.26639,0.41234 -0.86335,0.60488 -1.78087,0.57464 -1.38023,-0.0452 -1.38023,-0.0452 -1.15076,1.48871 0.12617,0.84388 0.23957,1.95296 0.25189,2.46474 0.0132,0.51177 0.27957,1.21688 0.59366,1.56691 1.80263,2.0077 -0.69393,4.21571 -2.86665,2.53534 z m -69.90105,-0.40045 c -1.54023,-0.61777 -1.85572,-1.25922 -2.02088,-4.10881 -0.0879,-1.51998 -0.37717,-3.16944 -0.6429,-3.66553 -0.59696,-1.11554 0.53515,-2.25452 2.24093,-2.25452 0.57939,0 1.15033,-0.15693 1.26885,-0.3486 2.05385,-3.32321 9.74782,-0.73464 10.03236,3.37531 0.14638,2.11486 -1.37653,1.82025 -3.62112,-0.70053 -2.75236,-3.09098 -7.89636,0.62334 -5.68808,4.10713 1.7482,2.75804 0.94297,4.60317 -1.56916,3.59559 z m 27.4524,-0.3886 c -0.22991,-0.42949 -0.47401,-1.70052 -0.54259,-2.82463 -0.0686,-1.12413 -0.22156,-2.14055 -0.3398,-2.25875 -0.11826,-0.11825 -0.21497,-0.4894 -0.21497,-0.82494 0,-0.3354 -0.41892,-1.17753 -0.93047,-1.8712 -1.1574,-1.56881 -1.17779,-2.37312 -0.0729,-2.87654 0.77579,-0.35344 0.85148,-0.61666 0.79346,-2.75812 -0.0396,-1.49324 0.12396,-2.63838 0.44504,-3.10149 0.28001,-0.40354 0.50922,-1.01282 0.50922,-1.35345 0,-1.01832 5.29974,-1.84988 6.41903,-1.00719 0.78488,0.59099 1.40936,5.14184 0.70554,5.14184 -0.23387,0 -0.42509,0.25101 -0.42509,0.55828 0,0.72519 -1.1002,0.71442 -2.1503,-0.022 -0.617,-0.43212 -0.82722,-0.95233 -0.82722,-2.04704 0,-0.816 -0.18111,-1.46766 -0.40793,-1.46766 -0.27739,0 -0.33717,0.80419 -0.18638,2.51226 0.37672,4.27448 0.55981,4.82679 1.76653,5.32664 2.60791,1.08025 2.91487,4.31585 0.39431,4.15562 -1.59725,-0.10151 -1.59725,-0.10151 -1.56732,1.48877 0.0633,3.37253 -0.23694,4.00949 -1.89239,4.00949 -0.69341,0 -1.20188,-0.26902 -1.47574,-0.7808 z m -40.42769,-0.50668 c -2.48312,-1.08007 -3.60684,-7.13934 -1.71432,-9.24374 0.40575,-0.45124 0.84134,-1.11357 0.96777,-1.47179 0.1266,-0.35827 0.43124,-0.65135 0.67749,-0.65135 0.24617,0 0.71231,-0.23957 1.03585,-0.53234 1.90096,-1.72038 8.54972,3.47219 7.60346,5.93816 -0.11605,0.302 -0.0484,0.54917 0.1499,0.54917 0.19825,0 0.28046,0.41894 0.18243,0.93044 -0.0981,0.51178 -0.32574,0.93049 -0.50667,0.93049 -0.18068,0 -0.32882,0.40881 -0.32882,0.9085 0,0.49968 -0.17803,1.01839 -0.39518,1.15269 -0.21717,0.13452 -0.54818,0.64669 -0.73518,1.13854 -0.40486,1.06525 -4.78524,1.28708 -6.93664,0.35123 z m 4.19782,-4.13232 c 1.63453,-1.99468 1.51038,-3.0519 -0.50698,-4.31752 -1.21256,-0.76076 -1.21256,-0.76076 -1.74763,0.51981 -0.75535,1.80791 -0.85791,4.71689 -0.18111,5.14496 0.8335,0.52738 0.95483,0.46026 2.43594,-1.34725 z m -9.98036,3.83797 c -0.54835,-0.42992 -1.04517,-2.41506 -1.04798,-4.1871 -6.6e-4,-0.40925 -0.15254,-1.16306 -0.33761,-1.67483 -0.18507,-0.51173 -0.43432,-1.38097 -0.55414,-1.9316 -0.18244,-0.83821 -0.44281,-1.0199 -1.60033,-1.11656 -2.80934,-0.23474 -3.00342,-3.279 -0.20925,-3.279 0.93105,0 1.82364,-1.5612 1.34001,-2.3438 -0.26596,-0.43035 -0.75298,-2.7058 -1.11134,-5.19296 -0.22331,-1.55136 0.0466,-1.68715 2.00089,-1.00583 1.30096,0.45348 1.85924,1.88223 2.08313,5.33091 0.13056,2.00879 0.26683,2.30029 1.6893,3.61392 1.97938,1.82767 1.813,2.95988 -0.568,3.86474 -0.0395,0.0132 0.1732,1.75365 0.46816,3.86527 0.29498,2.11161 0.44166,3.99292 0.32574,4.18067 -0.30508,0.49336 -1.78641,0.41938 -2.4788,-0.12396 z"
       style="fill:#ff0000;stroke:none;stroke-width:4.3959"
       id="path1-8"
       sodipodi:nodetypes="ccsssccccsssccsssssssssccccscsssscssscssscscccsssssssccsccscssscscsscccccscssssssccccsccssccssscccccscsssscsccsssccscssssscssscsccsssscsscsscsccsscsccssssccsscssccccssscsscscccsccc" />
    <path
       d="m 30.74292,140.73719 c -2.07351,-0.83508 -4.28016,-2.74449 -4.28016,-3.70359 0,-0.34419 -0.25145,-0.83429 -0.55828,-1.08913 -0.30727,-0.25496 -0.55828,-0.75986 -0.55828,-1.12227 0,-0.36266 -0.23122,-0.74783 -0.51432,-0.85636 -0.772318,-0.29629 -1.625908,-4.06291 -1.87112,-8.25647 -0.171881,-2.94157 1.100296,-5.99126 2.7376,-6.56203 0.5981,-0.20836 1.3585,-0.79276 1.68977,-1.29832 1.13578,-1.73339 7.77987,-2.96491 9.21927,-1.70883 0.35958,0.31387 1.02956,0.75743 1.48875,0.9857 1.94964,0.96934 3.90717,5.7345 2.80745,6.83422 -1.31966,1.3196 -3.10618,-0.30551 -2.67974,-2.43793 0.21804,-1.08921 -0.53445,-1.87775 -3.01563,-3.16078 -1.15533,-0.59744 -2.33682,-0.21056 -6.56299,2.14802 -1.4637,0.81698 -2.30187,2.90683 -2.22838,5.55637 0.0352,1.23688 0.0659,2.58259 0.0703,2.99048 0.004,0.40794 0.25189,1.11375 0.55002,1.56868 0.29804,0.45494 0.54197,1.21819 0.54197,1.69621 0,1.16196 3.06034,5.31552 4.44346,6.03078 2.47758,1.28118 5.97777,-0.16221 5.97777,-2.46514 0,-0.79768 0.17716,-1.05889 0.71777,-1.05889 0.39474,0 0.96903,-0.25144 1.27608,-0.55827 0.55916,-0.55916 1.78496,-0.74946 2.19386,-0.34069 0.28837,0.28838 -0.47951,2.50246 -0.98283,2.83356 -0.21716,0.14287 -0.73417,0.9704 -1.14865,1.8388 -1.28224,2.68661 -5.52855,3.66029 -9.31387,2.13575 z m 105.73739,-1.93873 c -1.83735,-1.4702 -0.9039,-1.10406 1.10192,-2.30749 l 1.47276,-0.88361 c 1.28843,-0.84839 1.84135,-1.04656 1.73174,-2.74526 -0.0653,-1.01186 -0.063,-1.86534 -0.129,-1.91303 -0.0659,-0.0479 -0.70611,-0.30992 -1.42255,-0.58246 -3.47035,-1.3208 -4.28988,-3.68258 -2.02053,-5.82286 1.75646,-1.65654 3.41368,-1.79576 4.90498,-0.41189 1.39399,1.2934 1.10316,1.9014 -0.78572,1.64249 -3.64538,-0.49965 -3.57875,1.46594 0.10325,3.04996 2.27457,0.97852 4.28657,4.14286 2.63415,4.14286 -0.33672,0 -0.90181,2.49613 -0.77956,3.44274 0.0461,0.35827 -0.0818,0.6513 -0.28486,0.6513 -0.20309,0 -0.6138,0.24485 -0.91298,0.54404 -0.41674,0.41672 -0.56164,-0.21205 -1.50051,0.16705 -0.35234,1.09918 -0.9551,0.43509 -1.32497,1.11922 -0.422,0.68277 -1.66102,0.80939 -2.78822,-0.0928 z m -70.81185,-0.27473 c -1.07681,-0.39827 -1.801,-4.35371 -1.801,-9.8368 0,-1.86091 0,-1.86091 1.30265,-1.75928 1.35138,0.10552 2.38235,1.01967 2.06945,1.83511 -0.0989,0.25804 0.0668,1.16918 0.36837,2.02449 0.30157,0.85527 0.5422,2.15623 0.53424,2.89096 -0.009,0.73477 0.0893,2.02594 0.21584,2.8693 0.25716,1.71096 -0.96995,2.61243 -2.68985,1.97622 z m 60.54021,-1.09041 c -0.89649,-0.89645 -1.00292,-3.40352 -0.20924,-4.92516 0.30815,-0.59059 0.38508,-1.10711 0.18375,-1.23155 -0.19079,-0.11782 -0.34684,-0.71984 -0.34684,-1.33759 0,-1.39658 -1.78157,-3.29908 -3.08939,-3.29908 -1.16967,0 -2.00019,0.92375 -1.43875,1.60023 0.22068,0.26596 0.51583,1.22911 0.65561,2.14011 0.13979,0.911 0.4821,2.10862 0.76071,2.66136 1.7843,3.54051 -1.64705,3.79837 -3.78179,0.28441 -2.90982,-4.79011 -3.14623,-7.64666 -0.6636,-8.01895 0.96108,-0.14418 2.08132,-0.57309 2.4894,-0.95325 0.80862,-0.75337 1.55206,-0.88881 1.88873,-0.34419 0.11782,0.19077 0.67219,0.34112 1.23156,0.33408 3.91749,-0.051 5.78936,3.16254 5.37202,9.22242 -0.0972,1.41065 -0.1776,3.02539 -0.17936,3.58833 -0.003,1.2836 -1.70355,1.4488 -2.87316,0.27914 z m -53.69209,-0.27914 c -0.32178,-0.35826 -0.76269,-1.65624 -0.98007,-2.88445 -0.52311,-2.95515 -1.60705,-11.52025 -1.69572,-13.3987 -0.0396,-0.81879 -0.29452,-2.20104 -0.56874,-3.0716 -0.63797,-2.02558 -0.11209,-3.44164 1.2782,-3.44164 1.30171,0 2.19351,1.47215 1.97117,3.25394 -0.10022,0.80352 0.0471,1.8384 0.34639,2.43282 0.28661,0.56896 0.43123,1.1792 0.32222,1.35609 -0.10946,0.17672 0.0624,1.05124 0.38156,1.94303 0.31914,0.89179 0.63442,2.87756 0.70036,4.41283 0.0659,1.53527 0.37101,3.37759 0.67802,4.09402 1.78601,4.16851 0.0132,8.02986 -2.43335,5.30366 z m 38.59485,0.16529 c -0.11078,-0.28837 -0.84919,-0.73825 -1.64112,-0.99963 -1.96122,-0.64726 -5.62943,-4.62357 -5.08214,-5.50907 0.30111,-0.48729 -0.83417,-1.93794 -1.51671,-1.93794 -0.3253,0 -1.40946,-0.76502 -2.40909,-1.70002 -2.46236,-2.30328 -3.11608,-2.13632 -3.04004,0.77645 0.0818,3.13678 0.28266,4.74647 0.66999,5.36783 0.21583,0.34639 0.17891,0.58804 -0.10378,0.68233 -0.2409,0.0804 -0.43826,0.46707 -0.43826,0.8594 0,2.42363 -2.92535,0.44109 -3.12844,-2.12024 -0.15649,-1.97296 -1.40911,-7.74552 -2.12331,-9.7846 -0.3886,-1.10961 -0.3587,-1.32863 0.24222,-1.7679 0.9587,-0.70098 1.13255,-0.64818 2.03385,0.61757 0.58949,0.82785 1.02293,1.07793 1.66622,0.96125 2.50817,-0.45479 5.87772,1.33887 6.87118,3.65766 0.62453,1.45768 0.62453,1.45768 1.80527,-0.6345 1.45166,-2.57218 3.35943,-3.4303 5.41118,-2.43397 0.6484,0.31475 1.80259,0.84314 2.56484,1.17397 0.97289,0.422 1.4596,0.90978 1.63311,1.63572 0.13584,0.56882 0.40531,1.23551 0.59881,1.48159 1.13059,1.43847 -0.1776,2.24142 -4.19774,2.5767 -3.55895,0.29672 -3.64858,0.38904 -2.10892,2.17017 1.63743,1.89419 5.70592,3.20368 6.41067,2.06338 0.41981,-0.67947 1.94835,-0.4176 2.15408,0.36926 0.19561,0.74823 -1.50921,2.57451 -2.46175,2.63706 -0.24001,0.0176 -1.15041,0.10811 -2.02273,0.20529 -1.14606,0.12748 -1.64191,0.0307 -1.78732,-0.34771 z m 0.52619,-10.13879 c 0.4308,-0.39432 -0.56561,-0.91316 -1.75268,-0.91316 -1.33025,0 -2.28561,0.51243 -2.28561,1.22592 0,0.29146 3.69044,0.004 4.03829,-0.31255 z m -62.94941,9.34915 c -0.3086,-0.30859 -0.63895,-1.72152 -0.78845,-3.37144 -0.14154,-1.56221 -0.43695,-3.29116 -0.65631,-3.84214 -0.72879,-1.83015 -1.78635,-6.19518 -1.79282,-7.39997 -0.003,-0.65319 -0.15121,-1.27719 -0.32838,-1.3866 -1.26574,-0.78229 -0.68571,-4.31119 0.70863,-4.31119 1.92148,0 3.13955,2.97162 3.31885,8.0969 0.0132,0.3587 0.86117,0.41189 3.65142,0.22902 4.32609,-0.28354 7.28773,0.76577 7.76161,2.74981 0.13408,0.56127 0.38377,1.20004 0.55529,1.41957 0.31211,0.40003 0.0699,7.49281 -0.27474,8.05074 -1.12891,1.82663 -2.6702,-0.54145 -2.96089,-4.54927 -0.30948,-4.26886 -0.50528,-4.69596 -2.38179,-5.20128 -4.05821,-1.09273 -5.5348,2.57047 -3.37478,8.37226 0.59577,1.60024 -2.08806,2.49327 -3.43755,1.14377 z m 31.58928,-0.0264 c -2.1222,-0.74792 -2.76888,-1.59334 -3.35257,-4.38307 -0.81584,-3.89939 1.10565,-7.64781 3.70424,-7.22611 1.38599,0.22507 2.12581,-0.30112 1.66969,-1.18742 -0.72549,-1.40951 -1.07945,-3.64266 -0.78356,-4.94367 0.23342,-1.0264 0.17408,-1.49857 -0.24133,-1.91371 -0.77553,-0.77553 3.95499,-2.40861 3.48075,-1.17274 -0.10901,0.28441 -0.022,0.62527 0.18991,0.75728 0.21364,0.13188 0.30243,0.56821 0.19781,0.96933 -0.17759,0.68001 0.53789,3.3572 1.30401,4.87765 0.18463,0.36662 0.24089,0.82032 0.1244,1.00838 -0.11606,0.18814 -0.0576,0.6418 0.13012,1.00837 0.6487,1.26642 1.14997,2.53658 1.95222,4.94662 1.75462,5.2709 1.65545,5.72303 -1.33789,6.09848 -1.0235,0.12836 -2.02841,0.4562 -2.23312,0.72854 -0.58383,0.77666 -3.16755,1.00903 -4.80459,0.43211 z m 3.7406,-3.35394 c 0.6342,-1.65273 -1.35639,-5.39391 -2.86994,-5.39391 -1.27974,0 -1.41636,3.15947 -0.21584,4.99168 0.72136,1.10095 2.7178,1.36119 3.08578,0.40223 z m 49.74679,-10.67875 c -0.21013,-0.26639 -0.49837,-0.98648 -0.64058,-1.60059 -0.14243,-0.6141 -0.87712,-1.64956 -1.63312,-2.30103 -1.37456,-1.18443 -1.37456,-1.18443 -0.57239,-2.00145 1.6813,-1.71234 4.82938,0.97681 5.03678,4.30248 0.12177,1.95446 -1.16768,2.89668 -2.19069,1.60059 z m -68.14816,-0.74458 c -0.84528,-0.84529 -0.53155,-1.78648 0.59552,-1.78648 1.19692,0 1.93538,0.59643 1.93538,1.56318 0,0.78915 -1.8057,0.94845 -2.5309,0.2233 z"
       style="fill:#0000ff;stroke:none;stroke-width:4.3959"
       id="path1-5"
       sodipodi:nodetypes="cscscccsccscsccccscssccsccccscsccscssscsscccccsccscccccccssssccccccscccscccssccsscsssscscccsscscscsscccccscsccsscsscccscccscssccccsccssccscccccccssssssssscccccccssc" />
    <path
       d="m -8.054671,144.14858 c -2.545359,-0.5518 -5.840307,-3.2519 -5.392452,-4.41893 0.108579,-0.28266 -0.137152,-0.84898 -0.546542,-1.25811 -0.601799,-0.60179 -0.739698,-1.2221 -0.722203,-3.24817 0.01319,-1.37737 0.0044,-2.81764 -0.01319,-3.20056 -0.05715,-1.18782 1.773351,-3.58394 2.737855,-3.58394 0.473175,0 1.253667,-0.41893 1.734402,-0.93044 2.629106,-2.79856 8.17853,1.85798 8.371687,7.02469 0.06775,1.81411 0.06775,1.81411 -2.197952,1.55286 -3.99539,-0.46069 -8.407115,-0.62769 -8.397664,-0.31782 0.0044,0.16529 1.020376,1.37147 2.25624,2.68035 2.247017,2.37977 2.247017,2.37977 5.546531,2.166 2.910657,-0.18859 3.397153,-0.12924 4.127932,0.50469 0.455577,0.39518 0.970211,0.71846 1.143585,0.71846 0.756936,0 0.212767,0.69543 -0.894347,1.14329 -0.665281,0.26902 -1.32066,0.65257 -1.456362,0.8521 -0.460241,0.67684 -3.849353,0.84665 -6.298881,0.31562 z M -5.89989,130.4627 c -1.584769,-1.37279 -2.73948,-1.52876 -3.817839,-0.51573 -1.313011,1.23349 -1.146494,1.46871 1.044117,1.47509 1.074658,0.003 2.203796,0.16352 2.509137,0.35651 1.135989,0.7182 1.355033,-0.37146 0.264628,-1.31609 z m -12.636674,12.08947 c -0.377168,-0.21979 -0.65134,-0.82212 -0.65134,-1.43187 0,-0.57885 -0.254963,-1.26414 -0.566676,-1.52279 -0.311669,-0.25848 -0.476428,-0.75464 -0.366178,-1.10218 0.110337,-0.34772 -0.03077,-1.2032 -0.317824,-1.90145 -0.285294,-0.69825 -0.634548,-2.07469 -0.776404,-3.05871 -0.327056,-2.26899 -3.927781,-4.52602 -3.927781,-2.46206 0,0.17276 -0.344638,0.63539 -0.765985,1.0279 -0.698685,0.6509 -0.736797,0.93149 -0.433436,3.1941 0.197376,1.47197 0.195618,2.56492 -0.0038,2.68818 -0.184628,0.1143 -0.252325,0.42597 -0.150339,0.69218 0.421566,1.09827 -0.688003,1.84303 -1.960396,1.31596 -1.632682,-0.67626 -1.822409,-1.18223 -2.447681,-6.52761 -0.302438,-2.58391 -0.644307,-4.85136 -0.760095,-5.03875 -0.351233,-0.56804 -1.394029,-6.75866 -1.438559,-8.53874 -0.08352,-3.34791 1.806451,-2.49515 2.584526,1.16602 1.074753,5.05722 1.905402,7.57805 2.439284,7.40261 1.367652,-0.44957 6.529275,-0.11209 7.7112,0.50403 1.760514,0.91782 2.700138,3.73674 3.17973,9.53937 0.05891,0.71073 0.324858,1.74209 0.591337,2.29198 0.856146,1.76645 -0.232983,2.75579 -1.939427,1.76183 z m -26.210599,-2.9143 c -0.564345,-0.52575 -0.830736,-1.39637 -1.022354,-3.34115 -0.142427,-1.44656 -0.416731,-2.72756 -0.609668,-2.84674 -0.19298,-0.11913 -0.350353,-0.78502 -0.350353,-1.47979 0,-0.69473 -0.15034,-1.6479 -0.334088,-2.11809 -0.183749,-0.47021 -0.526146,-2.61352 -0.761107,-4.76291 -0.824055,-7.53777 -1.644726,-9.31126 -3.779947,-8.1685 -2.519465,1.34835 -10.036798,0.9478 -10.617628,-0.56579 -0.529267,-1.37927 0.48368,-1.68663 5.582178,-1.69357 2.687249,-0.003 6.476999,-0.25144 8.421657,-0.55015 5.496194,-0.84476 16.004022,-0.3675 16.004022,0.72722 0,0.64804 -1.454516,0.84516 -8.160461,1.10596 -5.836789,0.22683 -5.863648,0.24222 -5.128961,2.87352 0.500385,1.79216 0.756403,3.62639 1.239072,8.87663 0.08484,0.92116 0.30024,2.17729 0.479461,2.7914 0.178914,0.61411 0.349915,1.95398 0.379806,2.97748 0.03077,1.02353 0.210124,2.84862 0.400027,4.05574 0.466933,2.96358 -0.09803,3.65049 -1.742008,2.11874 z"
       style="fill:#008000;stroke:none;stroke-width:4.3959"
       id="path1-1" />
  </g>
</svg>
